<?xml version="1.0" encoding="utf-8"?>
<!-- Generator: Adobe Illustrator 15.0.2, SVG Export Plug-In . SVG Version: 6.00 Build 0)  -->
<!DOCTYPE svg PUBLIC "-//W3C//DTD SVG 1.1//EN" "http://www.w3.org/Graphics/SVG/1.1/DTD/svg11.dtd">
<svg version="1.1" xmlns="http://www.w3.org/2000/svg" xmlns:xlink="http://www.w3.org/1999/xlink" x="0px" y="0px" width="432px"
	 height="576px" viewBox="216 0 432 576" enable-background="new 216 0 432 576" xml:space="preserve">
<g id="Layer_1">
	<g id="figure_1">
		<g id="axes_1">
			<g id="patch_2">
				<path fill="#FFFFFF" d="M252.003,265.591h376.536V16.187H252.003V265.591z"/>
			</g>
			<g id="PathCollection_1">
				<g>
					<defs>
						<rect id="SVGID_1_" x="252.003" y="16.187" width="376.536" height="249.404"/>
					</defs>
					<clipPath id="SVGID_2_">
						<use xlink:href="#SVGID_1_"  overflow="visible"/>
					</clipPath>
					<g clip-path="url(#SVGID_2_)">
						<g>
							<path id="m0860592df5" fill="#015545" stroke="#015545" stroke-width="1.5" stroke-linejoin="round" d="M267.361,32.649
								l6.887-6.887 M267.361,25.762l6.887,6.887"/>
						</g>
						<g>
							<path id="m0860592df5_1_" fill="#015545" stroke="#015545" stroke-width="1.5" stroke-linejoin="round" d="M275.101,34.083
								l6.887-6.887 M275.101,27.196l6.887,6.887"/>
						</g>
						<g>
							<path id="m0860592df5_2_" fill="#015545" stroke="#015545" stroke-width="1.5" stroke-linejoin="round" d="M282.841,37.217
								l6.887-6.887 M282.841,30.33l6.887,6.887"/>
						</g>
						<g>
							<path id="m0860592df5_3_" fill="#015545" stroke="#015545" stroke-width="1.5" stroke-linejoin="round" d="M290.582,37.865
								l6.887-6.887 M290.582,30.978l6.887,6.887"/>
						</g>
						<g>
							<path id="m0860592df5_4_" fill="#015545" stroke="#015545" stroke-width="1.5" stroke-linejoin="round" d="M298.322,37.971
								l6.887-6.887 M298.322,31.084l6.887,6.887"/>
						</g>
						<g>
							<path id="m0860592df5_5_" fill="#015545" stroke="#015545" stroke-width="1.5" stroke-linejoin="round" d="M306.062,43.275
								l6.887-6.888 M306.062,36.387l6.887,6.888"/>
						</g>
						<g>
							<path id="m0860592df5_6_" fill="#015545" stroke="#015545" stroke-width="1.5" stroke-linejoin="round" d="M313.802,50.187
								l6.887-6.887 M313.802,43.3l6.887,6.887"/>
						</g>
						<g>
							<path id="m0860592df5_7_" fill="#015545" stroke="#015545" stroke-width="1.5" stroke-linejoin="round" d="M321.542,57.047
								l6.887-6.887 M321.542,50.16l6.887,6.887"/>
						</g>
						<g>
							<path id="m0860592df5_8_" fill="#015545" stroke="#015545" stroke-width="1.5" stroke-linejoin="round" d="M329.283,63.638
								l6.887-6.887 M329.283,56.75l6.887,6.887"/>
						</g>
						<g>
							<path id="m0860592df5_9_" fill="#015545" stroke="#015545" stroke-width="1.5" stroke-linejoin="round" d="M337.023,69.898
								l6.887-6.887 M337.023,63.011l6.887,6.887"/>
						</g>
						<g>
							<path id="m0860592df5_10_" fill="#015545" stroke="#015545" stroke-width="1.5" stroke-linejoin="round" d="M344.763,75.845
								l6.887-6.888 M344.763,68.958l6.887,6.888"/>
						</g>
						<g>
							<path id="m0860592df5_11_" fill="#015545" stroke="#015545" stroke-width="1.5" stroke-linejoin="round" d="M352.503,81.565
								l6.887-6.887 M352.503,74.678l6.887,6.887"/>
						</g>
						<g>
							<path id="m0860592df5_12_" fill="#015545" stroke="#015545" stroke-width="1.5" stroke-linejoin="round" d="M360.243,87.137
								l6.888-6.887 M360.243,80.25l6.888,6.887"/>
						</g>
						<g>
							<path id="m0860592df5_13_" fill="#015545" stroke="#015545" stroke-width="1.5" stroke-linejoin="round" d="M367.984,92.608
								l6.887-6.887 M367.984,85.721l6.887,6.887"/>
						</g>
						<g>
							<path id="m0860592df5_14_" fill="#015545" stroke="#015545" stroke-width="1.5" stroke-linejoin="round" d="M375.724,98.006
								l6.886-6.888 M375.724,91.119l6.886,6.888"/>
						</g>
						<g>
							<path id="m0860592df5_15_" fill="#015545" stroke="#015545" stroke-width="1.5" stroke-linejoin="round" d="M383.464,103.348
								l6.887-6.887 M383.464,96.461l6.887,6.887"/>
						</g>
						<g>
							<path id="m0860592df5_16_" fill="#015545" stroke="#015545" stroke-width="1.5" stroke-linejoin="round" d="M391.204,108.645
								l6.887-6.887 M391.204,101.758l6.887,6.887"/>
						</g>
						<g>
							<path id="m0860592df5_17_" fill="#015545" stroke="#015545" stroke-width="1.5" stroke-linejoin="round" d="M398.944,113.906
								l6.887-6.887 M398.944,107.019l6.887,6.887"/>
						</g>
						<g>
							<path id="m0860592df5_18_" fill="#015545" stroke="#015545" stroke-width="1.5" stroke-linejoin="round" d="M406.685,119.136
								l6.887-6.888 M406.685,112.249l6.887,6.888"/>
						</g>
						<g>
							<path id="m0860592df5_19_" fill="#015545" stroke="#015545" stroke-width="1.5" stroke-linejoin="round" d="M414.424,124.339
								l6.888-6.887 M414.424,117.453l6.888,6.887"/>
						</g>
						<g>
							<path id="m0860592df5_20_" fill="#015545" stroke="#015545" stroke-width="1.5" stroke-linejoin="round" d="M422.166,129.52
								l6.886-6.886 M422.166,122.634l6.886,6.886"/>
						</g>
						<g>
							<path id="m0860592df5_21_" fill="#015545" stroke="#015545" stroke-width="1.5" stroke-linejoin="round" d="M429.905,134.682
								l6.887-6.888 M429.905,127.794l6.887,6.888"/>
						</g>
						<g>
							<path id="m0860592df5_22_" fill="#015545" stroke="#015545" stroke-width="1.5" stroke-linejoin="round" d="M437.646,139.826
								l6.887-6.888 M437.646,132.938l6.887,6.888"/>
						</g>
						<g>
							<path id="m0860592df5_23_" fill="#015545" stroke="#015545" stroke-width="1.5" stroke-linejoin="round" d="M445.386,144.952
								l6.887-6.886 M445.386,138.066l6.887,6.886"/>
						</g>
						<g>
							<path id="m0860592df5_24_" fill="#015545" stroke="#015545" stroke-width="1.5" stroke-linejoin="round" d="M453.126,150.066
								l6.887-6.888 M453.126,143.178l6.887,6.888"/>
						</g>
						<g>
							<path id="m0860592df5_25_" fill="#015545" stroke="#015545" stroke-width="1.5" stroke-linejoin="round" d="M460.866,155.166
								l6.888-6.888 M460.866,148.278l6.888,6.888"/>
						</g>
						<g>
							<path id="m0860592df5_26_" fill="#015545" stroke="#015545" stroke-width="1.5" stroke-linejoin="round" d="M468.606,160.253
								l6.888-6.887 M468.606,153.367l6.888,6.887"/>
						</g>
						<g>
							<path id="m0860592df5_27_" fill="#015545" stroke="#015545" stroke-width="1.5" stroke-linejoin="round" d="M476.347,165.331
								l6.887-6.888 M476.347,158.443l6.887,6.888"/>
						</g>
						<g>
							<path id="m0860592df5_28_" fill="#015545" stroke="#015545" stroke-width="1.5" stroke-linejoin="round" d="M484.087,170.397
								l6.887-6.888 M484.087,163.509l6.887,6.888"/>
						</g>
						<g>
							<path id="m0860592df5_29_" fill="#015545" stroke="#015545" stroke-width="1.5" stroke-linejoin="round" d="M491.827,175.454
								l6.887-6.887 M491.827,168.567l6.887,6.887"/>
						</g>
						<g>
							<path id="m0860592df5_30_" fill="#015545" stroke="#015545" stroke-width="1.5" stroke-linejoin="round" d="M499.567,180.501
								l6.887-6.887 M499.567,173.615l6.887,6.887"/>
						</g>
						<g>
							<path id="m0860592df5_31_" fill="#015545" stroke="#015545" stroke-width="1.5" stroke-linejoin="round" d="M507.308,185.542
								l6.887-6.888 M507.308,178.655l6.887,6.888"/>
						</g>
						<g>
							<path id="m0860592df5_32_" fill="#015545" stroke="#015545" stroke-width="1.5" stroke-linejoin="round" d="M515.048,190.575
								l6.887-6.887 M515.048,183.688l6.887,6.887"/>
						</g>
						<g>
							<path id="m0860592df5_33_" fill="#015545" stroke="#015545" stroke-width="1.5" stroke-linejoin="round" d="M522.788,195.6
								l6.887-6.887 M522.788,188.713l6.887,6.887"/>
						</g>
						<g>
							<path id="m0860592df5_34_" fill="#015545" stroke="#015545" stroke-width="1.5" stroke-linejoin="round" d="M530.527,200.62
								l6.888-6.888 M530.527,193.732l6.888,6.888"/>
						</g>
						<g>
							<path id="m0860592df5_35_" fill="#015545" stroke="#015545" stroke-width="1.5" stroke-linejoin="round" d="M538.268,205.632
								l6.889-6.887 M538.268,198.746l6.889,6.887"/>
						</g>
						<g>
							<path id="m0860592df5_36_" fill="#015545" stroke="#015545" stroke-width="1.5" stroke-linejoin="round" d="M546.008,210.64
								l6.888-6.888 M546.008,203.752l6.888,6.888"/>
						</g>
						<g>
							<path id="m0860592df5_37_" fill="#015545" stroke="#015545" stroke-width="1.5" stroke-linejoin="round" d="M553.749,215.641
								l6.887-6.887 M553.749,208.754l6.887,6.887"/>
						</g>
						<g>
							<path id="m0860592df5_38_" fill="#015545" stroke="#015545" stroke-width="1.5" stroke-linejoin="round" d="M561.489,220.638
								l6.887-6.888 M561.489,213.75l6.887,6.888"/>
						</g>
						<g>
							<path id="m0860592df5_39_" fill="#015545" stroke="#015545" stroke-width="1.5" stroke-linejoin="round" d="M569.229,225.63
								l6.888-6.887 M569.229,218.744l6.888,6.887"/>
						</g>
						<g>
							<path id="m0860592df5_40_" fill="#015545" stroke="#015545" stroke-width="1.5" stroke-linejoin="round" d="M576.969,230.618
								l6.888-6.887 M576.969,223.731l6.888,6.887"/>
						</g>
						<g>
							<path id="m0860592df5_41_" fill="#015545" stroke="#015545" stroke-width="1.5" stroke-linejoin="round" d="M584.709,235.597
								l6.888-6.887 M584.709,228.71l6.888,6.887"/>
						</g>
						<g>
							<path id="m0860592df5_42_" fill="#015545" stroke="#015545" stroke-width="1.5" stroke-linejoin="round" d="M592.449,240.543
								l6.888-6.888 M592.449,233.656l6.888,6.888"/>
						</g>
						<g>
							<path id="m0860592df5_43_" fill="#015545" stroke="#015545" stroke-width="1.5" stroke-linejoin="round" d="M600.19,245.424
								l6.887-6.887 M600.19,238.538l6.887,6.887"/>
						</g>
						<g>
							<path id="m0860592df5_44_" fill="#015545" stroke="#015545" stroke-width="1.5" stroke-linejoin="round" d="M607.93,249.978
								l6.887-6.887 M607.93,243.091l6.887,6.887"/>
						</g>
					</g>
				</g>
			</g>
			<g id="PathCollection_2">
				<g>
					<defs>
						<rect id="SVGID_3_" x="252.003" y="16.187" width="376.536" height="249.404"/>
					</defs>
					<clipPath id="SVGID_4_">
						<use xlink:href="#SVGID_3_"  overflow="visible"/>
					</clipPath>
					<g clip-path="url(#SVGID_4_)">
						<g>
							<path id="m4aa719497d" fill="#6598CB" stroke="#6598CB" stroke-linejoin="round" d="M270.805,31.558
								c0.624,0,1.222-0.248,1.664-0.689c0.441-0.441,0.689-1.039,0.689-1.664c0-0.624-0.248-1.222-0.689-1.663
								c-0.442-0.441-1.04-0.689-1.664-0.689c-0.624,0-1.222,0.248-1.664,0.689c-0.441,0.441-0.689,1.04-0.689,1.663
								c0,0.625,0.248,1.223,0.689,1.664C269.583,31.31,270.181,31.558,270.805,31.558z"/>
						</g>
						<g>
							<path id="m4aa719497d_1_" fill="#6598CB" stroke="#6598CB" stroke-linejoin="round" d="M278.544,32.991
								c0.625,0,1.223-0.248,1.664-0.689c0.441-0.441,0.688-1.04,0.688-1.664c0-0.624-0.248-1.222-0.688-1.663
								c-0.441-0.441-1.04-0.689-1.664-0.689c-0.624,0-1.222,0.248-1.663,0.689s-0.689,1.04-0.689,1.663
								c0,0.624,0.248,1.223,0.689,1.664C277.322,32.744,277.921,32.991,278.544,32.991z"/>
						</g>
						<g>
							<path id="m4aa719497d_2_" fill="#6598CB" stroke="#6598CB" stroke-linejoin="round" d="M286.285,36.125
								c0.624,0,1.222-0.248,1.663-0.689c0.441-0.441,0.689-1.04,0.689-1.664c0-0.624-0.248-1.222-0.689-1.663
								c-0.441-0.441-1.04-0.689-1.663-0.689c-0.624,0-1.222,0.248-1.664,0.689c-0.441,0.441-0.689,1.04-0.689,1.663
								c0,0.624,0.248,1.223,0.689,1.664C285.063,35.878,285.661,36.125,286.285,36.125z"/>
						</g>
						<g>
							<path id="m4aa719497d_3_" fill="#6598CB" stroke="#6598CB" stroke-linejoin="round" d="M294.025,36.774
								c0.624,0,1.222-0.249,1.664-0.689c0.441-0.441,0.689-1.04,0.689-1.664s-0.248-1.222-0.689-1.664s-1.04-0.689-1.664-0.689
								c-0.624,0-1.222,0.248-1.663,0.689c-0.441,0.441-0.689,1.04-0.689,1.664s0.248,1.222,0.689,1.664
								C292.803,36.526,293.401,36.774,294.025,36.774z"/>
						</g>
						<g>
							<path id="m4aa719497d_4_" fill="#6598CB" stroke="#6598CB" stroke-linejoin="round" d="M301.766,36.88
								c0.624,0,1.222-0.248,1.663-0.689c0.441-0.441,0.689-1.04,0.689-1.664c0-0.624-0.248-1.222-0.689-1.663
								s-1.039-0.689-1.663-0.689s-1.223,0.248-1.664,0.689c-0.441,0.441-0.689,1.04-0.689,1.663c0,0.624,0.248,1.223,0.689,1.664
								C300.543,36.632,301.142,36.88,301.766,36.88z"/>
						</g>
						<g>
							<path id="m4aa719497d_5_" fill="#6598CB" stroke="#6598CB" stroke-linejoin="round" d="M309.505,42.184
								c0.624,0,1.222-0.248,1.664-0.689c0.441-0.441,0.689-1.04,0.689-1.664c0-0.624-0.248-1.222-0.689-1.663
								c-0.441-0.441-1.04-0.689-1.664-0.689c-0.624,0-1.222,0.248-1.664,0.689c-0.44,0.441-0.689,1.04-0.689,1.663
								c0,0.624,0.249,1.222,0.689,1.664C308.283,41.936,308.882,42.184,309.505,42.184z"/>
						</g>
						<g>
							<path id="m4aa719497d_6_" fill="#6598CB" stroke="#6598CB" stroke-linejoin="round" d="M317.246,49.096
								c0.624,0,1.223-0.248,1.664-0.689s0.689-1.04,0.689-1.663c0-0.624-0.248-1.223-0.689-1.664
								c-0.441-0.441-1.04-0.689-1.664-0.689c-0.624,0-1.222,0.248-1.663,0.689c-0.441,0.441-0.689,1.04-0.689,1.664
								c0,0.624,0.248,1.222,0.689,1.663C316.023,48.848,316.622,49.096,317.246,49.096z"/>
						</g>
						<g>
							<path id="m4aa719497d_7_" fill="#6598CB" stroke="#6598CB" stroke-linejoin="round" d="M324.986,55.956
								c0.624,0,1.222-0.248,1.663-0.689c0.441-0.441,0.689-1.04,0.689-1.664s-0.248-1.222-0.689-1.664
								c-0.441-0.441-1.04-0.689-1.663-0.689c-0.624,0-1.222,0.248-1.664,0.689c-0.441,0.441-0.688,1.04-0.688,1.664
								s0.248,1.222,0.688,1.664C323.764,55.708,324.362,55.956,324.986,55.956z"/>
						</g>
						<g>
							<path id="m4aa719497d_8_" fill="#6598CB" stroke="#6598CB" stroke-linejoin="round" d="M332.726,62.546
								c0.624,0,1.222-0.248,1.664-0.688c0.441-0.441,0.689-1.04,0.689-1.664c0-0.624-0.248-1.222-0.689-1.663
								s-1.04-0.689-1.664-0.689c-0.624,0-1.222,0.248-1.663,0.689c-0.441,0.441-0.689,1.04-0.689,1.663
								c0,0.624,0.248,1.223,0.689,1.664C331.504,62.298,332.103,62.546,332.726,62.546z"/>
						</g>
						<g>
							<path id="m4aa719497d_9_" fill="#6598CB" stroke="#6598CB" stroke-linejoin="round" d="M340.466,68.807
								c0.624,0,1.223-0.248,1.664-0.689c0.441-0.441,0.689-1.04,0.689-1.664c0-0.624-0.248-1.222-0.689-1.663
								c-0.441-0.441-1.04-0.689-1.664-0.689s-1.222,0.248-1.663,0.689c-0.441,0.441-0.689,1.04-0.689,1.663
								c0,0.624,0.248,1.222,0.689,1.664C339.244,68.559,339.842,68.807,340.466,68.807z"/>
						</g>
						<g>
							<path id="m4aa719497d_10_" fill="#6598CB" stroke="#6598CB" stroke-linejoin="round" d="M348.207,74.754
								c0.624,0,1.222-0.248,1.664-0.689c0.441-0.441,0.689-1.04,0.689-1.664s-0.248-1.222-0.689-1.664
								c-0.441-0.441-1.04-0.689-1.664-0.689c-0.624,0-1.222,0.248-1.664,0.689c-0.44,0.441-0.689,1.04-0.689,1.664
								s0.249,1.222,0.689,1.664C346.984,74.506,347.583,74.754,348.207,74.754z"/>
						</g>
						<g>
							<path id="m4aa719497d_11_" fill="#6598CB" stroke="#6598CB" stroke-linejoin="round" d="M355.947,80.474
								c0.624,0,1.222-0.248,1.664-0.689c0.441-0.44,0.689-1.039,0.689-1.663c0-0.624-0.248-1.222-0.689-1.663
								c-0.441-0.441-1.04-0.689-1.664-0.689c-0.624,0-1.222,0.248-1.663,0.689c-0.441,0.441-0.689,1.04-0.689,1.663
								c0,0.624,0.248,1.223,0.689,1.663C354.725,80.226,355.323,80.474,355.947,80.474z"/>
						</g>
						<g>
							<path id="m4aa719497d_12_" fill="#6598CB" stroke="#6598CB" stroke-linejoin="round" d="M363.687,86.046
								c0.624,0,1.223-0.248,1.664-0.689c0.441-0.44,0.689-1.039,0.689-1.663s-0.248-1.223-0.689-1.663
								c-0.441-0.441-1.04-0.689-1.664-0.689c-0.624,0-1.222,0.248-1.664,0.689c-0.441,0.44-0.689,1.039-0.689,1.663
								s0.248,1.223,0.689,1.663C362.465,85.798,363.063,86.046,363.687,86.046z"/>
						</g>
						<g>
							<path id="m4aa719497d_13_" fill="#6598CB" stroke="#6598CB" stroke-linejoin="round" d="M371.427,91.518
								c0.624,0,1.222-0.249,1.664-0.689c0.441-0.441,0.688-1.039,0.688-1.663s-0.248-1.223-0.688-1.664
								c-0.442-0.441-1.04-0.688-1.664-0.688c-0.624,0-1.222,0.247-1.663,0.688c-0.441,0.441-0.689,1.04-0.689,1.664
								s0.248,1.222,0.689,1.663C370.205,91.269,370.804,91.518,371.427,91.518z"/>
						</g>
						<g>
							<path id="m4aa719497d_14_" fill="#6598CB" stroke="#6598CB" stroke-linejoin="round" d="M379.168,96.916
								c0.624,0,1.222-0.247,1.663-0.688c0.441-0.441,0.689-1.04,0.689-1.663c0-0.624-0.248-1.223-0.689-1.664
								c-0.441-0.44-1.04-0.688-1.663-0.688c-0.624,0-1.223,0.248-1.664,0.688c-0.441,0.441-0.689,1.04-0.689,1.664
								c0,0.623,0.248,1.222,0.689,1.663S378.544,96.916,379.168,96.916z"/>
						</g>
						<g>
							<path id="m4aa719497d_15_" fill="#6598CB" stroke="#6598CB" stroke-linejoin="round" d="M386.907,102.255
								c0.625,0,1.223-0.248,1.664-0.689c0.441-0.441,0.689-1.039,0.689-1.663s-0.248-1.223-0.689-1.663
								c-0.441-0.441-1.039-0.689-1.664-0.689c-0.624,0-1.222,0.248-1.663,0.689c-0.441,0.44-0.688,1.039-0.688,1.663
								s0.247,1.222,0.688,1.663S386.284,102.255,386.907,102.255z"/>
						</g>
						<g>
							<path id="m4aa719497d_16_" fill="#6598CB" stroke="#6598CB" stroke-linejoin="round" d="M394.648,107.546
								c0.624,0,1.222-0.248,1.663-0.689c0.442-0.44,0.689-1.039,0.689-1.663s-0.247-1.223-0.689-1.664
								c-0.44-0.441-1.039-0.688-1.663-0.688c-0.625,0-1.222,0.247-1.664,0.688c-0.441,0.441-0.688,1.04-0.688,1.664
								s0.248,1.223,0.688,1.663C393.426,107.298,394.023,107.546,394.648,107.546z"/>
						</g>
						<g>
							<path id="m4aa719497d_17_" fill="#6598CB" stroke="#6598CB" stroke-linejoin="round" d="M402.388,112.75
								c0.624,0,1.223-0.248,1.664-0.689c0.441-0.44,0.689-1.039,0.689-1.663s-0.248-1.223-0.689-1.663
								c-0.441-0.441-1.04-0.689-1.664-0.689c-0.624,0-1.222,0.248-1.663,0.689c-0.441,0.44-0.689,1.039-0.689,1.663
								s0.248,1.223,0.689,1.663C401.166,112.501,401.764,112.75,402.388,112.75z"/>
						</g>
						<g>
							<path id="m4aa719497d_18_" fill="#6598CB" stroke="#6598CB" stroke-linejoin="round" d="M410.128,117.911
								c0.625,0,1.223-0.247,1.664-0.688c0.441-0.441,0.689-1.04,0.689-1.663c0-0.624-0.249-1.223-0.689-1.664
								c-0.44-0.441-1.039-0.689-1.664-0.689c-0.624,0-1.222,0.248-1.663,0.689c-0.441,0.441-0.689,1.04-0.689,1.664
								c0,0.623,0.248,1.222,0.689,1.663C408.906,117.664,409.504,117.911,410.128,117.911z"/>
						</g>
						<g>
							<path id="m4aa719497d_19_" fill="#6598CB" stroke="#6598CB" stroke-linejoin="round" d="M417.869,122.44
								c0.624,0,1.222-0.247,1.663-0.688c0.441-0.441,0.689-1.04,0.689-1.663c0-0.624-0.248-1.223-0.689-1.664
								c-0.441-0.44-1.04-0.688-1.663-0.688c-0.624,0-1.223,0.248-1.664,0.688c-0.441,0.441-0.689,1.04-0.689,1.664
								c0,0.623,0.248,1.222,0.689,1.663C416.646,122.193,417.245,122.44,417.869,122.44z"/>
						</g>
					</g>
				</g>
			</g>
			<g id="PathCollection_3">
				<g>
					<defs>
						<rect id="SVGID_5_" x="252.003" y="16.187" width="376.536" height="249.404"/>
					</defs>
					<clipPath id="SVGID_6_">
						<use xlink:href="#SVGID_5_"  overflow="visible"/>
					</clipPath>
					<g clip-path="url(#SVGID_6_)">
						<g>
							<path id="mb295800911" fill="#FAAF40" stroke="#FAAF40" stroke-linejoin="round" d="M270.805,27.948l-1.089,0.628v1.258
								l1.089,0.628l1.089-0.628v-1.258L270.805,27.948z"/>
						</g>
						<g>
							<path id="mb295800911_1_" fill="#FAAF40" stroke="#FAAF40" stroke-linejoin="round" d="M278.544,29.381l-1.088,0.629v1.257
								l1.088,0.629l1.089-0.629V30.01L278.544,29.381z"/>
						</g>
						<g>
							<path id="mb295800911_2_" fill="#FAAF40" stroke="#FAAF40" stroke-linejoin="round" d="M286.285,32.513l-1.089,0.628v1.258
								l1.089,0.628l1.089-0.628v-1.258L286.285,32.513z"/>
						</g>
						<g>
							<path id="mb295800911_3_" fill="#FAAF40" stroke="#FAAF40" stroke-linejoin="round" d="M294.025,33.161l-1.089,0.629v1.257
								l1.089,0.629l1.089-0.629V33.79L294.025,33.161z"/>
						</g>
						<g>
							<path id="mb295800911_4_" fill="#FAAF40" stroke="#FAAF40" stroke-linejoin="round" d="M301.766,33.297l-1.089,0.628v1.257
								l1.089,0.629l1.089-0.629v-1.257L301.766,33.297z"/>
						</g>
						<g>
							<path id="mb295800911_5_" fill="#FAAF40" stroke="#FAAF40" stroke-linejoin="round" d="M309.505,38.631l-1.089,0.629v1.257
								l1.089,0.628l1.089-0.628V39.26L309.505,38.631z"/>
						</g>
						<g>
							<path id="mb295800911_6_" fill="#FAAF40" stroke="#FAAF40" stroke-linejoin="round" d="M317.246,45.548l-1.089,0.629v1.257
								l1.089,0.629l1.089-0.629v-1.257L317.246,45.548z"/>
						</g>
						<g>
							<path id="mb295800911_7_" fill="#FAAF40" stroke="#FAAF40" stroke-linejoin="round" d="M324.986,52.29l-1.089,0.629v1.257
								l1.089,0.629l1.089-0.629v-1.257L324.986,52.29z"/>
						</g>
						<g>
							<path id="mb295800911_8_" fill="#FAAF40" stroke="#FAAF40" stroke-linejoin="round" d="M332.726,58.447l-1.089,0.629v1.257
								l1.089,0.629l1.089-0.629v-1.257L332.726,58.447z"/>
						</g>
						<g>
							<path id="mb295800911_9_" fill="#FAAF40" stroke="#FAAF40" stroke-linejoin="round" d="M340.466,61.002l-1.089,0.629v1.257
								l1.089,0.629l1.089-0.629v-1.257L340.466,61.002z"/>
						</g>
						<g>
							<path id="mb295800911_10_" fill="#FAAF40" stroke="#FAAF40" stroke-linejoin="round" d="M348.207,62.351l-1.089,0.629v1.257
								l1.089,0.628l1.089-0.628V62.98L348.207,62.351z"/>
						</g>
						<g>
							<path id="mb295800911_11_" fill="#FAAF40" stroke="#FAAF40" stroke-linejoin="round" d="M355.947,61.305l-1.089,0.629v1.257
								l1.089,0.629l1.089-0.629v-1.257L355.947,61.305z"/>
						</g>
						<g>
							<path id="mb295800911_12_" fill="#FAAF40" stroke="#FAAF40" stroke-linejoin="round" d="M363.687,62.598l-1.089,0.629v1.257
								l1.089,0.629l1.089-0.629v-1.257L363.687,62.598z"/>
						</g>
						<g>
							<path id="mb295800911_13_" fill="#FAAF40" stroke="#FAAF40" stroke-linejoin="round" d="M371.427,62.16l-1.089,0.628v1.257
								l1.089,0.629l1.089-0.629v-1.257L371.427,62.16z"/>
						</g>
						<g>
							<path id="mb295800911_14_" fill="#FAAF40" stroke="#FAAF40" stroke-linejoin="round" d="M379.168,61.664l-1.089,0.629v1.257
								l1.089,0.629l1.088-0.629v-1.257L379.168,61.664z"/>
						</g>
						<g>
							<path id="mb295800911_15_" fill="#FAAF40" stroke="#FAAF40" stroke-linejoin="round" d="M386.907,63.187l-1.089,0.628v1.258
								l1.089,0.628l1.089-0.628v-1.258L386.907,63.187z"/>
						</g>
						<g>
							<path id="mb295800911_16_" fill="#FAAF40" stroke="#FAAF40" stroke-linejoin="round" d="M394.648,62.452l-1.089,0.629v1.257
								l1.089,0.629l1.088-0.629v-1.257L394.648,62.452z"/>
						</g>
						<g>
							<path id="mb295800911_17_" fill="#FAAF40" stroke="#FAAF40" stroke-linejoin="round" d="M402.388,61.436l-1.089,0.628v1.258
								l1.089,0.628l1.089-0.628v-1.258L402.388,61.436z"/>
						</g>
						<g>
							<path id="mb295800911_18_" fill="#FAAF40" stroke="#FAAF40" stroke-linejoin="round" d="M410.128,62.08l-1.088,0.629v1.257
								l1.088,0.628l1.089-0.628v-1.257L410.128,62.08z"/>
						</g>
						<g>
							<path id="mb295800911_19_" fill="#FAAF40" stroke="#FAAF40" stroke-linejoin="round" d="M417.869,63.237l-1.089,0.629v1.257
								l1.089,0.628l1.089-0.628v-1.257L417.869,63.237z"/>
						</g>
					</g>
				</g>
			</g>
			<g id="matplotlib.axis_1">
				<g id="xtick_1">
					<g id="line2d_1">
						<g>
							<g>
								<path id="m7442dd4306" stroke="#000000" stroke-width="0.8" stroke-linejoin="round" d="M263.064,265.591v1.968"/>
							</g>
						</g>
					</g>
					<g id="text_1">
						<g transform="translate(124.488182 527.238438)scale(0.1 -0.1)">
							<g>
								<path id="DejaVuSans-30" d="M1385.743,2571.725c-2.852,0-5-1.406-6.44-4.219c-1.436-2.803-2.153-7.031-2.153-12.666
									c0-5.625,0.718-9.844,2.153-12.656c1.44-2.803,3.589-4.209,6.44-4.209c2.876,0,5.034,1.406,6.47,4.209
									c1.44,2.812,2.158,7.031,2.158,12.656c0,5.635-0.718,9.863-2.158,12.666
									C1390.777,2570.319,1388.619,2571.725,1385.743,2571.725z M1385.743,2576.11c4.6,0,8.11-1.807,10.537-5.449
									c2.427-3.633,3.638-8.906,3.638-15.82c0-6.904-1.211-12.178-3.638-15.82c-2.427-3.623-5.938-5.439-10.537-5.439
									c-4.59,0-8.101,1.816-10.522,5.439c-2.427,3.643-3.643,8.916-3.643,15.82c0,6.914,1.216,12.188,3.643,15.82
									C1377.642,2574.303,1381.153,2576.11,1385.743,2576.11z"/>
							</g>
						</g>
					</g>
				</g>
				<g id="xtick_2">
					<g id="line2d_2">
						<g>
							<g>
								<path id="m7442dd4306_1_" stroke="#000000" stroke-width="0.8" stroke-linejoin="round" d="M340.466,265.591v1.968"/>
							</g>
						</g>
					</g>
					<g id="text_2">
						<g transform="translate(258.95217 527.238438)scale(0.1 -0.1)">
							<g>
								<path id="DejaVuSans-31" d="M786.342,2539.04h9.058v31.279l-9.858-1.973v5.049l9.805,1.973h5.542v-36.328h9.058v-4.658
									h-23.604V2539.04z"/>
							</g>
							<g>
								<path id="DejaVuSans-30_1_" d="M833.012,2571.725c-2.852,0-5-1.406-6.44-4.219c-1.436-2.803-2.153-7.031-2.153-12.666
									c0-5.625,0.718-9.844,2.153-12.656c1.44-2.803,3.589-4.209,6.44-4.209c2.876,0,5.034,1.406,6.47,4.209
									c1.436,2.812,2.158,7.031,2.158,12.656c0,5.635-0.723,9.863-2.158,12.666
									C838.047,2570.319,835.888,2571.725,833.012,2571.725z M833.012,2576.11c4.6,0,8.11-1.807,10.537-5.449
									c2.422-3.633,3.633-8.906,3.633-15.82c0-6.904-1.211-12.178-3.633-15.82c-2.427-3.623-5.938-5.439-10.537-5.439
									c-4.595,0-8.101,1.816-10.527,5.439c-2.422,3.643-3.638,8.916-3.638,15.82c0,6.914,1.216,12.188,3.638,15.82
									C824.912,2574.303,828.418,2576.11,833.012,2576.11z"/>
							</g>
						</g>
					</g>
				</g>
				<g id="xtick_3">
					<g id="line2d_3">
						<g>
							<g>
								<path id="m7442dd4306_2_" stroke="#000000" stroke-width="0.8" stroke-linejoin="round" d="M417.869,265.591v1.968"/>
							</g>
						</g>
					</g>
					<g id="text_3">
						<g transform="translate(396.597408 527.238438)scale(0.1 -0.1)">
							<g>
								<path id="DejaVuSans-32" d="M187.722,2539.04h19.355v-4.658h-26.03v4.658c2.109,2.178,4.976,5.107,8.608,8.779
									c3.638,3.662,5.923,6.035,6.86,7.1c1.768,1.992,3.003,3.682,3.706,5.059c0.708,1.387,1.064,2.744,1.064,4.082
									c0,2.178-0.757,3.955-2.295,5.322c-1.528,1.377-3.521,2.07-5.972,2.07c-1.733,0-3.579-0.312-5.508-0.908
									s-3.989-1.523-6.182-2.754v5.605c2.227,0.908,4.312,1.572,6.255,2.031s3.721,0.684,5.327,0.684
									c4.243,0,7.637-1.055,10.156-3.184c2.524-2.119,3.789-4.951,3.789-8.516c0-1.68-0.317-3.271-0.942-4.785
									c-0.64-1.514-1.782-3.281-3.452-5.342c-0.459-0.537-1.914-2.061-4.365-4.6C195.652,2547.145,192.185,2543.6,187.722,2539.04
									z"/>
							</g>
							<g>
								<path id="DejaVuSans-30_2_" d="M230.579,2571.725c-2.852,0-4.995-1.406-6.445-4.219c-1.426-2.803-2.148-7.031-2.148-12.666
									c0-5.625,0.723-9.844,2.148-12.656c1.45-2.803,3.594-4.209,6.445-4.209c2.881,0,5.029,1.406,6.47,4.209
									c1.436,2.812,2.158,7.031,2.158,12.656c0,5.635-0.723,9.863-2.158,12.666
									C235.608,2570.319,233.46,2571.725,230.579,2571.725z M230.579,2576.11c4.6,0,8.115-1.807,10.542-5.449
									c2.422-3.633,3.638-8.906,3.638-15.82c0-6.904-1.216-12.178-3.638-15.82c-2.427-3.623-5.942-5.439-10.542-5.439
									c-4.595,0-8.101,1.816-10.527,5.439c-2.422,3.643-3.638,8.916-3.638,15.82c0,6.914,1.216,12.188,3.638,15.82
									C222.478,2574.303,225.984,2576.11,230.579,2576.11z"/>
							</g>
						</g>
					</g>
				</g>
				<g id="xtick_4">
					<g id="line2d_4">
						<g>
							<g>
								<path id="m7442dd4306_3_" stroke="#000000" stroke-width="0.8" stroke-linejoin="round" d="M495.271,265.591v1.968"/>
							</g>
						</g>
					</g>
					<g id="text_4">
						<g transform="translate(534.242645 527.238438)scale(0.1 -0.1)">
							<g>
								<path id="DejaVuSans-33" d="M-402.68,2556.481c2.646-0.566,4.717-1.748,6.211-3.545s2.236-4.004,2.236-6.641
									c0-4.043-1.387-7.178-4.17-9.395s-6.738-3.32-11.865-3.32c-1.709,0-3.486,0.166-5.303,0.508
									c-1.826,0.342-3.701,0.85-5.645,1.523v5.361c1.543-0.898,3.223-1.582,5.049-2.041c1.836-0.449,3.74-0.684,5.742-0.684
									c3.477,0,6.123,0.684,7.939,2.061c1.826,1.367,2.744,3.369,2.744,5.986c0,2.422-0.85,4.307-2.549,5.664
									c-1.689,1.357-4.043,2.051-7.061,2.051h-4.775v4.561h5c2.715,0,4.805,0.547,6.25,1.631c1.445,1.094,2.178,2.656,2.178,4.717
									c0,2.1-0.752,3.711-2.246,4.834c-1.484,1.123-3.623,1.699-6.406,1.699c-1.523,0-3.154-0.176-4.893-0.498
									c-1.748-0.342-3.652-0.85-5.742-1.533v4.941c2.109,0.576,4.092,1.016,5.928,1.318c1.846,0.283,3.574,0.43,5.195,0.43
									c4.219,0,7.549-0.957,10-2.871c2.441-1.914,3.672-4.492,3.672-7.754c0-2.266-0.645-4.189-1.943-5.752
									C-398.441,2558.17-400.287,2557.086-402.68,2556.481z"/>
							</g>
							<g>
								<path id="DejaVuSans-30_3_" d="M-371.85,2571.725c-2.861,0-5-1.406-6.445-4.219c-1.426-2.803-2.148-7.031-2.148-12.666
									c0-5.625,0.723-9.844,2.148-12.656c1.445-2.803,3.584-4.209,6.445-4.209c2.881,0,5.029,1.406,6.465,4.209
									c1.445,2.812,2.158,7.031,2.158,12.656c0,5.635-0.713,9.863-2.158,12.666
									C-366.82,2570.319-368.969,2571.725-371.85,2571.725z M-371.85,2576.11c4.6,0,8.115-1.807,10.537-5.449
									c2.422-3.633,3.633-8.906,3.633-15.82c0-6.904-1.211-12.178-3.633-15.82c-2.422-3.623-5.938-5.439-10.537-5.439
									c-4.59,0-8.105,1.816-10.527,5.439c-2.422,3.643-3.643,8.916-3.643,15.82c0,6.914,1.221,12.188,3.643,15.82
									C-379.955,2574.303-376.439,2576.11-371.85,2576.11z"/>
							</g>
						</g>
					</g>
				</g>
				<g id="xtick_5">
					<g id="line2d_5">
						<g>
							<g>
								<path id="m7442dd4306_4_" stroke="#000000" stroke-width="0.8" stroke-linejoin="round" d="M572.673,265.591v1.968"/>
							</g>
						</g>
					</g>
					<g id="text_5">
						<g transform="translate(671.887883 527.238438)scale(0.1 -0.1)">
							<g>
								<path id="DejaVuSans-34" d="M-1006.671,2570.543l-14.014-21.885h14.014V2570.543z M-1008.136,2575.368h6.973v-26.709h5.85
									v-4.619h-5.85v-9.658h-5.508v9.658h-18.506v5.352L-1008.136,2575.368z"/>
							</g>
							<g>
								<path id="DejaVuSans-30_4_" d="M-974.278,2571.725c-2.861,0-5-1.406-6.445-4.219c-1.436-2.803-2.148-7.031-2.148-12.666
									c0-5.625,0.713-9.844,2.148-12.656c1.445-2.803,3.584-4.209,6.445-4.209c2.871,0,5.029,1.406,6.465,4.209
									c1.436,2.812,2.158,7.031,2.158,12.656c0,5.635-0.723,9.863-2.158,12.666
									C-969.249,2570.319-971.407,2571.725-974.278,2571.725z M-974.278,2576.11c4.6,0,8.105-1.807,10.537-5.449
									c2.422-3.633,3.633-8.906,3.633-15.82c0-6.904-1.211-12.178-3.633-15.82c-2.432-3.623-5.938-5.439-10.537-5.439
									s-8.105,1.816-10.527,5.439c-2.422,3.643-3.643,8.916-3.643,15.82c0,6.914,1.221,12.188,3.643,15.82
									C-982.384,2574.303-978.878,2576.11-974.278,2576.11z"/>
							</g>
						</g>
					</g>
				</g>
			</g>
			<g id="matplotlib.axis_2">
				<g id="ytick_1">
					<g id="line2d_6">
						<g>
							<g>
								<path id="m3c9cecd0de" stroke="#000000" stroke-width="0.8" stroke-linejoin="round" d="M252.004,244.858h-1.968"/>
							</g>
						</g>
					</g>
					<g id="text_7">
						<g transform="translate(73.1 479.568492)scale(0.1 -0.1)">
							<g transform="translate(0 0.684375)">
								<path id="DejaVuSans-31_1_" d="M1599.763,2330.797h9.058v31.279l-9.858-1.982v5.049l9.805,1.982h5.547v-36.328h9.058v-4.668
									h-23.608V2330.797z"/>
							</g>
							<g transform="translate(63.623047 0.684375)">
								<path id="DejaVuSans-30_5_" d="M1646.433,2363.463c-2.852,0-5-1.406-6.44-4.209c-1.436-2.812-2.153-7.031-2.153-12.676
									c0-5.615,0.718-9.834,2.153-12.646c1.44-2.803,3.589-4.219,6.44-4.219c2.876,0,5.029,1.416,6.465,4.219
									c1.445,2.812,2.163,7.031,2.163,12.646c0,5.645-0.718,9.863-2.163,12.676
									C1651.462,2362.057,1649.309,2363.463,1646.433,2363.463z M1646.433,2367.857c4.6,0,8.11-1.807,10.537-5.459
									c2.427-3.623,3.638-8.906,3.638-15.82c0-6.895-1.211-12.168-3.638-15.801c-2.427-3.643-5.938-5.449-10.537-5.449
									c-4.59,0-8.101,1.807-10.527,5.449c-2.422,3.633-3.633,8.906-3.633,15.801c0,6.914,1.211,12.197,3.633,15.82
									C1638.332,2366.051,1641.843,2367.857,1646.433,2367.857z"/>
							</g>
							<g transform="translate(128.203125 38.965625)scale(0.7)">
								<path id="DejaVuSans-2212" d="M1669.05,2361.637h24.634v-3.281h-24.634V2361.637z"/>
							</g>
							<g transform="translate(186.855469 38.965625)scale(0.7)">
								<path id="DejaVuSans-31_2_" d="M1702.741,2350.914h6.343v21.904l-6.899-1.387v3.535l6.86,1.387h3.882v-25.439h6.343v-3.262
									h-16.528V2350.914z"/>
							</g>
							<g transform="translate(231.391602 38.965625)scale(0.7)">
								<path id="DejaVuSans-35" d="M1727.155,2376.354h15.239v-3.271h-11.689v-7.031c0.566,0.186,1.128,0.332,1.689,0.42
									c0.562,0.098,1.133,0.146,1.694,0.146c3.203,0,5.742-0.879,7.607-2.627c1.88-1.758,2.812-4.141,2.812-7.129
									c0-3.096-0.957-5.498-2.886-7.197c-1.924-1.719-4.629-2.568-8.13-2.568c-1.201,0-2.432,0.098-3.682,0.303
									c-1.245,0.205-2.534,0.508-3.872,0.928v3.896c1.152-0.615,2.349-1.094,3.574-1.396c1.235-0.312,2.529-0.459,3.901-0.459
									c2.217,0,3.97,0.576,5.264,1.738c1.299,1.172,1.943,2.754,1.943,4.756c0,1.992-0.645,3.574-1.943,4.746
									c-1.294,1.162-3.047,1.748-5.264,1.748c-1.04,0-2.07-0.117-3.105-0.342c-1.03-0.234-2.08-0.596-3.154-1.074V2376.354z"/>
							</g>
						</g>
					</g>
				</g>
				<g id="ytick_2">
					<g id="line2d_7">
						<g>
							<g>
								<path id="m3c9cecd0de_1_" stroke="#000000" stroke-width="0.8" stroke-linejoin="round" d="M252.004,216.102h-1.968"/>
							</g>
						</g>
					</g>
					<g id="text_8">
						<g transform="translate(73.1 428.430929)scale(0.1 -0.1)">
							<g transform="translate(0 0.765625)">
								<path id="DejaVuSans-31_3_" d="M1599.763,2107.019h9.058v31.279l-9.858-1.963v5.049l9.805,1.973h5.547v-36.338h9.058v-4.658
									h-23.608V2107.019z"/>
							</g>
							<g transform="translate(63.623047 0.765625)">
								<path id="DejaVuSans-30_6_" d="M1646.433,2139.705c-2.852,0-5-1.406-6.44-4.229c-1.436-2.803-2.153-7.021-2.153-12.656
									c0-5.625,0.718-9.844,2.153-12.646c1.44-2.812,3.589-4.219,6.44-4.219c2.876,0,5.029,1.406,6.465,4.219
									c1.445,2.803,2.163,7.021,2.163,12.646c0,5.635-0.718,9.854-2.163,12.656
									C1651.462,2138.298,1649.309,2139.705,1646.433,2139.705z M1646.433,2144.099c4.6,0,8.11-1.826,10.537-5.459
									c2.427-3.643,3.638-8.906,3.638-15.82s-1.211-12.178-3.638-15.811s-5.938-5.449-10.537-5.449
									c-4.59,0-8.101,1.816-10.527,5.449c-2.422,3.633-3.633,8.896-3.633,15.811s1.211,12.178,3.633,15.82
									C1638.332,2142.273,1641.843,2144.099,1646.433,2144.099z"/>
							</g>
							<g transform="translate(128.203125 39.046875)scale(0.7)">
								<path id="DejaVuSans-2212_1_" d="M1669.05,2137.859h24.634v-3.262h-24.634V2137.859z"/>
							</g>
							<g transform="translate(186.855469 39.046875)scale(0.7)">
								<path id="DejaVuSans-31_4_" d="M1702.741,2127.156h6.343v21.885l-6.899-1.377v3.535l6.86,1.387h3.882v-25.43h6.343v-3.271
									h-16.528V2127.156z"/>
							</g>
							<g transform="translate(231.391602 39.046875)scale(0.7)">
								<path id="DejaVuSans-33_1_" d="M1738.874,2139.363c1.86-0.4,3.311-1.23,4.351-2.49c1.045-1.26,1.567-2.803,1.567-4.648
									c0-2.832-0.972-5.02-2.92-6.572s-4.717-2.324-8.306-2.324c-1.201,0-2.437,0.117-3.711,0.352s-2.593,0.596-3.95,1.074v3.74
									c1.074-0.615,2.251-1.104,3.53-1.416c1.284-0.322,2.622-0.479,4.023-0.479c2.432,0,4.282,0.479,5.562,1.436
									c1.274,0.957,1.909,2.354,1.909,4.189c0,1.689-0.596,3.018-1.777,3.965c-1.187,0.957-2.832,1.436-4.946,1.436h-3.345v3.193
									h3.501c1.904,0,3.364,0.381,4.375,1.143c1.016,0.762,1.523,1.865,1.523,3.301c0,1.465-0.522,2.598-1.567,3.379
									c-1.045,0.801-2.539,1.191-4.487,1.191c-1.064,0-2.207-0.117-3.423-0.342c-1.221-0.234-2.559-0.596-4.014-1.074v3.447
									c1.475,0.42,2.852,0.723,4.141,0.928c1.284,0.205,2.5,0.303,3.638,0.303c2.954,0,5.283-0.664,6.997-2.002
									c1.719-1.338,2.578-3.145,2.578-5.42c0-1.602-0.454-2.939-1.367-4.043
									C1741.848,2140.535,1740.554,2139.783,1738.874,2139.363z"/>
							</g>
						</g>
					</g>
				</g>
				<g id="ytick_3">
					<g id="line2d_8">
						<g>
							<g>
								<path id="m3c9cecd0de_2_" stroke="#000000" stroke-width="0.8" stroke-linejoin="round" d="M252.004,187.345h-1.968"/>
							</g>
						</g>
					</g>
					<g id="text_9">
						<g transform="translate(73.1 377.293366)scale(0.1 -0.1)">
							<g transform="translate(0 0.684375)">
								<path id="DejaVuSans-31_5_" d="M1599.763,1883.163h9.058v31.289l-9.858-1.982v5.049l9.805,1.982h5.547v-36.338h9.058v-4.658
									h-23.608V1883.163z"/>
							</g>
							<g transform="translate(63.623047 0.684375)">
								<path id="DejaVuSans-30_7_" d="M1646.433,1915.839c-2.852,0-5-1.406-6.44-4.219c-1.436-2.803-2.153-7.031-2.153-12.666
									c0-5.615,0.718-9.834,2.153-12.646c1.44-2.803,3.589-4.219,6.44-4.219c2.876,0,5.029,1.416,6.465,4.219
									c1.445,2.812,2.163,7.031,2.163,12.646c0,5.635-0.718,9.863-2.163,12.666
									C1651.462,1914.432,1649.309,1915.839,1646.433,1915.839z M1646.433,1920.233c4.6,0,8.11-1.816,10.537-5.449
									c2.427-3.643,3.638-8.916,3.638-15.83c0-6.904-1.211-12.178-3.638-15.811s-5.938-5.439-10.537-5.439
									c-4.59,0-8.101,1.807-10.527,5.439c-2.422,3.633-3.633,8.906-3.633,15.811c0,6.914,1.211,12.188,3.633,15.83
									C1638.332,1918.417,1641.843,1920.233,1646.433,1920.233z"/>
							</g>
							<g transform="translate(128.203125 38.965625)scale(0.7)">
								<path id="DejaVuSans-2212_2_" d="M1669.05,1913.993h24.634v-3.252h-24.634V1913.993z"/>
							</g>
							<g transform="translate(186.855469 38.965625)scale(0.7)">
								<path id="DejaVuSans-31_6_" d="M1702.741,1903.29h6.343v21.895l-6.899-1.377v3.535l6.86,1.377h3.882v-25.43h6.343v-3.262
									h-16.528V1903.29z"/>
							</g>
							<g transform="translate(231.391602 38.965625)scale(0.7)">
								<path id="DejaVuSans-31_7_" d="M1727.785,1903.29h6.343v21.895l-6.899-1.377v3.535l6.86,1.377h3.882v-25.43h6.343v-3.262
									h-16.528V1903.29z"/>
							</g>
						</g>
					</g>
				</g>
				<g id="ytick_4">
					<g id="line2d_9">
						<g>
							<g>
								<path id="m3c9cecd0de_3_" stroke="#000000" stroke-width="0.8" stroke-linejoin="round" d="M252.004,158.589h-1.968"/>
							</g>
						</g>
					</g>
					<g id="text_10">
						<g transform="translate(77.5 326.155803)scale(0.1 -0.1)">
							<g transform="translate(0 0.765625)">
								<path id="DejaVuSans-31_8_" d="M1580.504,1659.395h9.058v31.279l-9.854-1.982v5.059l9.8,1.982h5.547v-36.338h9.058v-4.668
									h-23.608V1659.395z"/>
							</g>
							<g transform="translate(63.623047 0.765625)">
								<path id="DejaVuSans-30_8_" d="M1627.179,1692.07c-2.856,0-5-1.406-6.445-4.209c-1.431-2.812-2.153-7.031-2.153-12.676
									c0-5.615,0.723-9.824,2.153-12.646c1.445-2.803,3.589-4.209,6.445-4.209c2.871,0,5.029,1.406,6.465,4.209
									c1.44,2.822,2.158,7.031,2.158,12.646c0,5.645-0.718,9.863-2.158,12.676
									C1632.208,1690.664,1630.05,1692.07,1627.179,1692.07z M1627.179,1696.465c4.595,0,8.105-1.816,10.532-5.449
									c2.427-3.643,3.638-8.906,3.638-15.83c0-6.904-1.211-12.168-3.638-15.801s-5.938-5.449-10.532-5.449
									s-8.105,1.816-10.527,5.449c-2.427,3.633-3.643,8.896-3.643,15.801c0,6.924,1.216,12.188,3.643,15.83
									C1619.073,1694.648,1622.584,1696.465,1627.179,1696.465z"/>
							</g>
							<g transform="translate(128.203125 39.046875)scale(0.7)">
								<path id="DejaVuSans-2212_3_" d="M1649.791,1690.234h24.639v-3.271h-24.639V1690.234z"/>
							</g>
							<g transform="translate(186.855469 39.046875)scale(0.7)">
								<path id="DejaVuSans-39" d="M1682.926,1676.855v3.535c0.977-0.459,1.958-0.811,2.954-1.055
									c1.006-0.244,1.982-0.361,2.949-0.361c2.563,0,4.521,0.859,5.869,2.578c1.353,1.729,2.124,4.336,2.319,7.852
									c-0.747-1.104-1.685-1.943-2.832-2.539c-1.138-0.586-2.397-0.879-3.779-0.879c-2.876,0-5.142,0.859-6.816,2.598
									s-2.51,4.111-2.51,7.129c0,2.939,0.869,5.312,2.617,7.09c1.738,1.777,4.062,2.666,6.953,2.666
									c3.32,0,5.859-1.27,7.603-3.809c1.748-2.549,2.627-6.24,2.627-11.094c0-4.521-1.074-8.125-3.223-10.82
									c-2.148-2.705-5.034-4.043-8.652-4.043c-0.981,0-1.968,0.088-2.969,0.283
									C1685.04,1676.182,1684.005,1676.475,1682.926,1676.855z M1690.65,1689.023c1.743,0,3.12,0.586,4.141,1.787
									c1.021,1.191,1.528,2.822,1.528,4.902c0,2.061-0.508,3.691-1.528,4.883c-1.021,1.201-2.397,1.807-4.141,1.807
									s-3.12-0.605-4.141-1.807c-1.016-1.191-1.523-2.822-1.523-4.883c0-2.08,0.508-3.711,1.523-4.902
									C1687.53,1689.609,1688.907,1689.023,1690.65,1689.023z"/>
							</g>
						</g>
					</g>
				</g>
				<g id="ytick_5">
					<g id="line2d_10">
						<g>
							<g>
								<path id="m3c9cecd0de_4_" stroke="#000000" stroke-width="0.8" stroke-linejoin="round" d="M252.004,129.833h-1.968"/>
							</g>
						</g>
					</g>
					<g id="text_11">
						<g transform="translate(77.5 275.018241)scale(0.1 -0.1)">
							<g transform="translate(0 0.684375)">
								<path id="DejaVuSans-31_9_" d="M1580.504,1435.529h9.058v31.279l-9.854-1.963v5.049l9.8,1.973h5.547v-36.338h9.058v-4.658
									h-23.608V1435.529z"/>
							</g>
							<g transform="translate(63.623047 0.684375)">
								<path id="DejaVuSans-30_9_" d="M1627.179,1468.214c-2.856,0-5-1.406-6.445-4.219c-1.431-2.803-2.153-7.021-2.153-12.666
									c0-5.625,0.723-9.834,2.153-12.646c1.445-2.812,3.589-4.219,6.445-4.219c2.871,0,5.029,1.406,6.465,4.219
									c1.44,2.812,2.158,7.021,2.158,12.646c0,5.645-0.718,9.863-2.158,12.666
									C1632.208,1466.808,1630.05,1468.214,1627.179,1468.214z M1627.179,1472.609c4.595,0,8.105-1.826,10.532-5.459
									s3.638-8.906,3.638-15.82c0-6.904-1.211-12.178-3.638-15.811s-5.938-5.449-10.532-5.449s-8.105,1.816-10.527,5.449
									c-2.427,3.633-3.643,8.906-3.643,15.811c0,6.914,1.216,12.188,3.643,15.82
									C1619.073,1470.783,1622.584,1472.609,1627.179,1472.609z"/>
							</g>
							<g transform="translate(128.203125 38.965625)scale(0.7)">
								<path id="DejaVuSans-2212_4_" d="M1649.791,1466.369h24.639v-3.262h-24.639V1466.369z"/>
							</g>
							<g transform="translate(186.855469 38.965625)scale(0.7)">
								<path id="DejaVuSans-37" d="M1681.832,1481.095h18.452v-1.65l-10.425-27.051h-4.048l9.805,25.43h-13.784V1481.095z"/>
							</g>
						</g>
					</g>
				</g>
				<g id="ytick_6">
					<g id="line2d_11">
						<g>
							<g>
								<path id="m3c9cecd0de_5_" stroke="#000000" stroke-width="0.8" stroke-linejoin="round" d="M252.004,101.078h-1.968"/>
							</g>
						</g>
					</g>
					<g id="text_12">
						<g transform="translate(77.5 223.880678)scale(0.1 -0.1)">
							<g transform="translate(0 0.684375)">
								<path id="DejaVuSans-31_10_" d="M1580.504,1211.722h9.058v31.279l-9.854-1.973v5.049l9.8,1.982h5.547v-36.338h9.058v-4.668
									h-23.608V1211.722z"/>
							</g>
							<g transform="translate(63.623047 0.684375)">
								<path id="DejaVuSans-30_10_" d="M1627.179,1244.397c-2.856,0-5-1.406-6.445-4.219c-1.431-2.803-2.153-7.021-2.153-12.666
									c0-5.625,0.723-9.834,2.153-12.646c1.445-2.812,3.589-4.219,6.445-4.219c2.871,0,5.029,1.406,6.465,4.219
									c1.44,2.812,2.158,7.021,2.158,12.646c0,5.645-0.718,9.863-2.158,12.666
									C1632.208,1242.991,1630.05,1244.397,1627.179,1244.397z M1627.179,1248.792c4.595,0,8.105-1.816,10.532-5.459
									c2.427-3.633,3.638-8.896,3.638-15.82c0-6.904-1.211-12.168-3.638-15.811c-2.427-3.623-5.938-5.449-10.532-5.449
									s-8.105,1.826-10.527,5.449c-2.427,3.643-3.643,8.906-3.643,15.811c0,6.924,1.216,12.188,3.643,15.82
									C1619.073,1246.976,1622.584,1248.792,1627.179,1248.792z"/>
							</g>
							<g transform="translate(128.203125 38.965625)scale(0.7)">
								<path id="DejaVuSans-2212_5_" d="M1649.791,1242.562h24.639v-3.271h-24.639V1242.562z"/>
							</g>
							<g transform="translate(186.855469 38.965625)scale(0.7)">
								<path id="DejaVuSans-35_1_" d="M1682.853,1257.278h15.239v-3.262h-11.685v-7.041c0.562,0.195,1.123,0.342,1.685,0.439
									c0.566,0.088,1.128,0.137,1.699,0.137c3.203,0,5.732-0.879,7.607-2.637s2.808-4.121,2.808-7.129
									c0-3.086-0.957-5.479-2.881-7.197c-1.924-1.709-4.634-2.568-8.13-2.568c-1.211,0-2.437,0.107-3.687,0.312
									c-1.245,0.195-2.539,0.508-3.867,0.918v3.906c1.152-0.625,2.339-1.094,3.574-1.406c1.226-0.303,2.529-0.449,3.896-0.449
									c2.222,0,3.975,0.576,5.269,1.738c1.294,1.172,1.938,2.754,1.938,4.746c0,2.002-0.645,3.584-1.938,4.746
									s-3.047,1.748-5.269,1.748c-1.035,0-2.075-0.107-3.105-0.342c-1.03-0.225-2.08-0.586-3.154-1.074V1257.278z"/>
							</g>
						</g>
					</g>
				</g>
				<g id="ytick_7">
					<g id="line2d_12">
						<g>
							<g>
								<path id="m3c9cecd0de_6_" stroke="#000000" stroke-width="0.8" stroke-linejoin="round" d="M252.004,72.321h-1.968"/>
							</g>
						</g>
					</g>
					<g id="text_13">
						<g transform="translate(77.5 172.743115)scale(0.1 -0.1)">
							<g transform="translate(0 0.765625)">
								<path id="DejaVuSans-31_11_" d="M1580.504,987.954h9.058v31.279l-9.854-1.978v5.054l9.8,1.978h5.547v-36.333h9.058v-4.663
									h-23.608V987.954z"/>
							</g>
							<g transform="translate(63.623047 0.765625)">
								<path id="DejaVuSans-30_11_" d="M1627.179,1020.629c-2.856,0-5-1.406-6.445-4.214c-1.431-2.808-2.153-7.031-2.153-12.671
									c0-5.615,0.723-9.829,2.153-12.646c1.445-2.808,3.589-4.219,6.445-4.219c2.871,0,5.029,1.411,6.465,4.219
									c1.44,2.817,2.158,7.031,2.158,12.646c0,5.64-0.718,9.863-2.158,12.671
									C1632.208,1019.223,1630.05,1020.629,1627.179,1020.629z M1627.179,1025.024c4.595,0,8.105-1.821,10.532-5.459
									c2.427-3.628,3.638-8.906,3.638-15.82c0-6.904-1.211-12.168-3.638-15.806c-2.427-3.633-5.938-5.449-10.532-5.449
									s-8.105,1.816-10.527,5.449c-2.427,3.638-3.643,8.901-3.643,15.806c0,6.914,1.216,12.192,3.643,15.82
									C1619.073,1023.203,1622.584,1025.024,1627.179,1025.024z"/>
							</g>
							<g transform="translate(128.203125 39.046875)scale(0.7)">
								<path id="DejaVuSans-2212_6_" d="M1649.791,1018.789h24.639v-3.267h-24.639V1018.789z"/>
							</g>
							<g transform="translate(186.855469 39.046875)scale(0.7)">
								<path id="DejaVuSans-33_2_" d="M1694.576,1020.292c1.855-0.4,3.306-1.23,4.346-2.485c1.045-1.26,1.567-2.808,1.567-4.653
									c0-2.827-0.972-5.02-2.92-6.572c-1.948-1.548-4.717-2.324-8.306-2.324c-1.201,0-2.437,0.117-3.716,0.356
									c-1.27,0.239-2.593,0.596-3.945,1.069v3.745c1.074-0.63,2.251-1.099,3.53-1.421c1.279-0.317,2.627-0.479,4.023-0.479
									c2.432,0,4.282,0.479,5.557,1.44c1.274,0.957,1.914,2.354,1.914,4.185c0,1.694-0.591,3.018-1.777,3.97
									c-1.187,0.957-2.832,1.436-4.941,1.436h-3.35v3.193h3.501c1.909,0,3.364,0.376,4.38,1.143
									c1.016,0.757,1.519,1.86,1.519,3.296c0,1.47-0.522,2.598-1.567,3.389c-1.04,0.786-2.539,1.187-4.482,1.187
									c-1.069,0-2.212-0.117-3.428-0.352s-2.559-0.586-4.014-1.074v3.457c1.475,0.415,2.856,0.723,4.141,0.928
									c1.289,0.205,2.505,0.308,3.643,0.308c2.944,0,5.278-0.674,6.992-2.017c1.719-1.333,2.578-3.14,2.578-5.42
									c0-1.592-0.454-2.935-1.362-4.028C1697.545,1021.469,1696.251,1020.712,1694.576,1020.292z"/>
							</g>
						</g>
					</g>
				</g>
				<g id="ytick_8">
					<g id="line2d_13">
						<g>
							<g>
								<path id="m3c9cecd0de_7_" stroke="#000000" stroke-width="0.8" stroke-linejoin="round" d="M252.004,43.564h-1.968"/>
							</g>
						</g>
					</g>
					<g id="text_14">
						<g transform="translate(77.5 121.605552)scale(0.1 -0.1)">
							<g transform="translate(0 0.684375)">
								<path id="DejaVuSans-31_12_" d="M1580.504,764.093h9.058v31.279l-9.854-1.973v5.049l9.8,1.978h5.547v-36.333h9.058v-4.663
									h-23.608V764.093z"/>
							</g>
							<g transform="translate(63.623047 0.684375)">
								<path id="DejaVuSans-30_12_" d="M1627.179,796.774c-2.856,0-5-1.406-6.445-4.219c-1.431-2.808-2.153-7.031-2.153-12.671
									c0-5.62,0.723-9.834,2.153-12.642c1.445-2.812,3.589-4.219,6.445-4.219c2.871,0,5.029,1.406,6.465,4.219
									c1.44,2.808,2.158,7.021,2.158,12.642c0,5.64-0.718,9.863-2.158,12.671C1632.208,795.368,1630.05,796.774,1627.179,796.774z
									 M1627.179,801.168c4.595,0,8.105-1.821,10.532-5.459c2.427-3.633,3.638-8.906,3.638-15.825
									c0-6.899-1.211-12.168-3.638-15.806c-2.427-3.633-5.938-5.449-10.532-5.449s-8.105,1.816-10.527,5.449
									c-2.427,3.638-3.643,8.906-3.643,15.806c0,6.919,1.216,12.192,3.643,15.825
									C1619.073,799.347,1622.584,801.168,1627.179,801.168z"/>
							</g>
							<g transform="translate(128.203125 38.965625)scale(0.7)">
								<path id="DejaVuSans-2212_7_" d="M1649.791,794.933h24.639v-3.267h-24.639V794.933z"/>
							</g>
							<g transform="translate(186.855469 38.965625)scale(0.7)">
								<path id="DejaVuSans-31_13_" d="M1683.487,784.225h6.338v21.895l-6.899-1.387v3.535l6.865,1.387h3.882v-25.43h6.338v-3.271
									h-16.523V784.225z"/>
							</g>
						</g>
					</g>
				</g>
			</g>
			<g id="line2d_14">
				<g>
					<defs>
						<rect id="SVGID_7_" x="252.004" y="16.187" width="376.536" height="249.404"/>
					</defs>
					<clipPath id="SVGID_8_">
						<use xlink:href="#SVGID_7_"  overflow="visible"/>
					</clipPath>
					
						<path clip-path="url(#SVGID_8_)" fill="none" stroke="#015545" stroke-width="1.5" stroke-linecap="square" stroke-linejoin="round" d="
						M270.805,254.255h7.74h7.741h7.74h7.741h7.74h7.74h7.741h7.74h7.74h7.74h7.74h7.74h7.74h7.741h7.739h7.741h7.74h7.74h7.741
						h7.74h7.74h7.74h7.74h7.74h7.74h7.74h7.74h7.74h7.74h7.74h7.739h7.741h7.74h7.74h7.74h7.74h7.74h7.74h7.74h7.74h7.739h7.741
						h7.74h7.74"/>
				</g>
			</g>
			<g id="line2d_15">
				<g>
					<defs>
						<rect id="SVGID_9_" x="252.004" y="16.187" width="376.536" height="249.404"/>
					</defs>
					<clipPath id="SVGID_10_">
						<use xlink:href="#SVGID_9_"  overflow="visible"/>
					</clipPath>
					
						<path clip-path="url(#SVGID_10_)" fill="none" stroke="#6598CB" stroke-width="1.5" stroke-linecap="square" stroke-linejoin="round" d="
						M270.805,128.736h7.74h7.741h7.74h7.741h7.74h7.74h7.741h7.74h7.74h7.74h7.74h7.74h7.74h7.741h7.739h7.741h7.74h7.74h7.741"/>
				</g>
			</g>
			<g id="line2d_16">
				<g>
					<defs>
						<rect id="SVGID_11_" x="252.004" y="16.187" width="376.536" height="249.404"/>
					</defs>
					<clipPath id="SVGID_12_">
						<use xlink:href="#SVGID_11_"  overflow="visible"/>
					</clipPath>
					
						<path clip-path="url(#SVGID_12_)" fill="none" stroke="#FAAF40" stroke-width="1.5" stroke-linecap="square" stroke-linejoin="round" d="
						M270.805,72.469h7.74h7.741h7.74h7.741h7.74h7.74h7.741h7.74h7.74h7.74h7.74h7.74h7.74h7.741h7.739h7.741h7.74h7.74h7.741"/>
				</g>
			</g>
			<g id="patch_3">
				<path fill="none" stroke="#000000" stroke-width="0.8" stroke-linecap="square" d="M252.004,265.591V16.187"/>
			</g>
			<g id="patch_4">
				<path fill="none" stroke="#000000" stroke-width="0.8" stroke-linecap="square" d="M628.539,265.591V16.187"/>
			</g>
			<g id="patch_5">
				<path fill="none" stroke="#000000" stroke-width="0.8" stroke-linecap="square" d="M252.004,265.591h376.536"/>
			</g>
			<g id="patch_6">
				<path fill="none" stroke="#000000" stroke-width="0.8" stroke-linecap="square" d="M252.004,16.187h376.536"/>
			</g>
			<g id="text_16" display="none">
				<g transform="translate(292.224375 63.12)scale(0.12 -0.12)" display="inline">
					<g>
						<path id="DejaVuSans-48" d="M663.878,829.5h5.546v-16.809h20.154V829.5h5.546v-41h-5.546v19.523h-20.154v-19.523h-5.546V829.5
							z"/>
					</g>
					<g>
						<path id="DejaVuSans-6f_3_" d="M717.858,815.714c-2.71,0-4.846-1.058-6.421-3.174c-1.579-2.116-2.364-5.013-2.364-8.687
							c0-3.683,0.777-6.58,2.344-8.691c1.571-2.116,3.719-3.174,6.441-3.174c2.698,0,4.826,1.062,6.396,3.182
							c1.575,2.128,2.364,5.021,2.364,8.684c0,3.642-0.79,6.531-2.364,8.659C722.684,814.648,720.555,815.714,717.858,815.714z
							 M717.858,819.995c4.395,0,7.841-1.432,10.352-4.289c2.511-2.856,3.764-6.808,3.764-11.853c0-5.034-1.253-8.984-3.764-11.853
							c-2.51-2.865-5.957-4.301-10.352-4.301c-4.411,0-7.865,1.437-10.368,4.301c-2.494,2.869-3.744,6.819-3.744,11.853
							c0,5.045,1.249,8.997,3.744,11.853C709.992,818.563,713.447,819.995,717.858,819.995z"/>
					</g>
					<g>
						<path id="DejaVuSans-75" d="M739.826,800.635v18.616h5.054v-18.42c0-2.914,0.565-5.094,1.697-6.559
							c1.135-1.449,2.844-2.173,5.111-2.173c2.722,0,4.879,0.867,6.458,2.604c1.587,1.742,2.385,4.114,2.385,7.121v17.428h5.054
							v-30.75h-5.054v4.728c-1.225-1.868-2.649-3.255-4.269-4.167c-1.619-0.907-3.499-1.363-5.64-1.363
							c-3.536,0-6.217,1.099-8.052,3.296C740.742,793.197,739.826,796.407,739.826,800.635z"/>
					</g>
					<g>
						<path id="DejaVuSans-73_1_" d="M795.592,818.351v-4.781c-1.428,0.732-2.909,1.277-4.443,1.644
							c-1.542,0.366-3.133,0.554-4.785,0.554c-2.506,0-4.39-0.387-5.644-1.152c-1.253-0.769-1.872-1.924-1.872-3.462
							c0-1.172,0.444-2.092,1.339-2.759c0.895-0.671,2.698-1.302,5.412-1.909l1.729-0.386c3.589-0.769,6.136-1.852,7.65-3.251
							c1.51-1.399,2.266-3.353,2.266-5.859c0-2.86-1.131-5.123-3.394-6.795c-2.258-1.66-5.367-2.495-9.322-2.495
							c-1.648,0-3.365,0.163-5.151,0.488c-1.786,0.322-3.666,0.802-5.64,1.44v5.221c1.868-0.977,3.707-1.705,5.521-2.189
							c1.803-0.48,3.605-0.725,5.383-0.725c2.376,0,4.208,0.407,5.485,1.225c1.278,0.81,1.921,1.961,1.921,3.442
							c0,1.371-0.464,2.421-1.388,3.153c-0.919,0.732-2.946,1.44-6.083,2.116l-1.754,0.415c-3.125,0.655-5.387,1.668-6.783,3.032
							c-1.387,1.363-2.083,3.239-2.083,5.615c0,2.893,1.025,5.123,3.076,6.697c2.047,1.575,4.96,2.364,8.728,2.364
							c1.872,0,3.625-0.138,5.269-0.415C792.683,819.312,794.205,818.896,795.592,818.351z"/>
					</g>
					<g>
						<path id="DejaVuSans-65_2_" d="M831.591,805.143v-2.47h-23.23c0.22-3.479,1.27-6.132,3.146-7.951
							c1.872-1.823,4.484-2.734,7.837-2.734c1.937,0,3.821,0.236,5.64,0.712c1.823,0.472,3.634,1.192,5.428,2.148v-4.781
							c-1.815-0.769-3.67-1.359-5.574-1.758c-1.904-0.407-3.833-0.61-5.794-0.61c-4.903,0-8.797,1.428-11.658,4.281
							c-2.869,2.856-4.293,6.726-4.293,11.601c0,5.029,1.355,9.021,4.069,11.975c2.722,2.954,6.392,4.439,11.007,4.439
							c4.134,0,7.406-1.339,9.814-4S831.591,809.721,831.591,805.143z M826.537,806.628c-0.037,2.759-0.81,4.96-2.319,6.604
							c-1.51,1.656-3.507,2.482-5.998,2.482c-2.82,0-5.074-0.797-6.771-2.393c-1.693-1.591-2.669-3.833-2.926-6.726L826.537,806.628
							z"/>
					</g>
					<g>
						<path id="DejaVuSans-68" d="M865.449,807.068v-18.567h-5.05v18.4c0,2.91-0.57,5.09-1.705,6.527
							c-1.139,1.449-2.84,2.173-5.103,2.173c-2.734,0-4.887-0.871-6.458-2.612c-1.579-1.729-2.372-4.102-2.372-7.104v-17.383h-5.074
							v42.729h5.074v-16.756c1.217,1.851,2.637,3.235,4.277,4.146c1.64,0.916,3.528,1.375,5.672,1.375
							c3.528,0,6.201-1.099,8.016-3.28C864.537,814.53,865.449,811.316,865.449,807.068z"/>
					</g>
					<g>
						<path id="DejaVuSans-6f_4_" d="M887.438,815.714c-2.71,0-4.85-1.058-6.425-3.174c-1.575-2.116-2.364-5.013-2.364-8.687
							c0-3.683,0.781-6.58,2.348-8.691c1.571-2.116,3.715-3.174,6.441-3.174c2.69,0,4.826,1.062,6.393,3.182
							c1.575,2.128,2.364,5.021,2.364,8.684c0,3.642-0.789,6.531-2.364,8.659C892.264,814.648,890.127,815.714,887.438,815.714z
							 M887.438,819.995c4.391,0,7.837-1.432,10.352-4.289c2.511-2.856,3.76-6.808,3.76-11.853c0-5.034-1.249-8.984-3.76-11.853
							c-2.515-2.865-5.961-4.301-10.352-4.301c-4.411,0-7.869,1.437-10.372,4.301c-2.494,2.869-3.743,6.819-3.743,11.853
							c0,5.045,1.249,8.997,3.743,11.853C879.568,818.563,883.027,819.995,887.438,819.995z"/>
					</g>
					<g>
						<path id="DejaVuSans-6c" d="M909.923,831.229h5.054v-42.729h-5.054V831.229z"/>
					</g>
					<g>
						<path id="DejaVuSans-64" d="M945.783,814.587v16.642h5.054v-42.729h-5.054v4.614c-1.062-1.827-2.405-3.186-4.024-4.077
							c-1.611-0.891-3.56-1.339-5.835-1.339c-3.715,0-6.742,1.485-9.078,4.448c-2.332,2.97-3.491,6.873-3.491,11.707
							c0,4.83,1.16,8.728,3.491,11.694c2.336,2.962,5.363,4.447,9.078,4.447c2.275,0,4.224-0.448,5.835-1.339
							C943.379,817.773,944.721,816.415,945.783,814.587z M928.567,803.854c0-3.715,0.769-6.633,2.299-8.745
							c1.522-2.112,3.625-3.174,6.299-3.174c2.665,0,4.773,1.062,6.307,3.174c1.542,2.112,2.311,5.029,2.311,8.745
							c0,3.711-0.769,6.624-2.311,8.74c-1.534,2.116-3.642,3.174-6.307,3.174c-2.673,0-4.777-1.058-6.299-3.174
							C929.336,810.478,928.567,807.564,928.567,803.854z"/>
					</g>
					<g>
						<path id="DejaVuSans-65_3_" d="M987.552,805.143v-2.47h-23.234c0.22-3.479,1.27-6.132,3.146-7.951
							c1.872-1.823,4.488-2.734,7.837-2.734c1.941,0,3.821,0.236,5.644,0.712c1.823,0.472,3.63,1.192,5.428,2.148v-4.781
							c-1.815-0.769-3.67-1.359-5.579-1.758c-1.904-0.407-3.833-0.61-5.79-0.61c-4.903,0-8.797,1.428-11.662,4.281
							c-2.86,2.856-4.289,6.726-4.289,11.601c0,5.029,1.351,9.021,4.069,11.975c2.722,2.954,6.388,4.439,11.003,4.439
							c4.134,0,7.41-1.339,9.814-4C986.347,813.334,987.552,809.721,987.552,805.143z M982.498,806.628
							c-0.037,2.759-0.81,4.96-2.323,6.604c-1.505,1.656-3.503,2.482-5.998,2.482c-2.816,0-5.074-0.797-6.771-2.393
							c-1.688-1.591-2.665-3.833-2.921-6.726L982.498,806.628z"/>
					</g>
					<g>
						<path id="DejaVuSans-72_5_" d="M1013.658,814.535c-0.57,0.33-1.184,0.569-1.855,0.72c-0.667,0.159-1.4,0.24-2.205,0.24
							c-2.856,0-5.054-0.932-6.584-2.783c-1.522-1.863-2.291-4.529-2.291-8.008v-16.203h-5.078v30.75h5.078v-4.777
							c1.066,1.868,2.446,3.255,4.15,4.154c1.701,0.912,3.772,1.367,6.213,1.367c0.338,0,0.724-0.024,1.147-0.073
							c0.419-0.041,0.887-0.106,1.4-0.204L1013.658,814.535z"/>
					</g>
					<g>
						<path id="DejaVuSans-20_1_" d="M1013.663,788.501"/>
					</g>
					<g>
						<path id="DejaVuSans-51" d="M1053.694,825.736c-4.028,0-7.231-1.501-9.607-4.504c-2.364-2.999-3.548-7.092-3.548-12.276
							c0-5.164,1.184-9.241,3.548-12.248c2.376-2.999,5.579-4.496,9.607-4.496c4.024,0,7.214,1.498,9.574,4.496
							c2.348,3.007,3.528,7.084,3.528,12.248c0,5.184-1.18,9.277-3.528,12.276C1060.908,824.235,1057.718,825.736,1053.694,825.736z
							 M1061.461,789.242l7.312-7.992h-6.702l-6.075,6.567c-0.606-0.037-1.062-0.061-1.387-0.082
							c-0.313-0.024-0.623-0.037-0.916-0.037c-5.766,0-10.376,1.929-13.827,5.786c-3.455,3.854-5.18,9.009-5.18,15.471
							c0,6.478,1.725,11.646,5.18,15.503c3.451,3.849,8.061,5.778,13.827,5.778c5.75,0,10.339-1.929,13.782-5.778
							c3.438-3.857,5.167-9.025,5.167-15.503c0-4.757-0.968-8.83-2.877-12.224C1067.854,793.351,1065.087,790.849,1061.461,789.242z
							"/>
					</g>
					<g>
						<path id="DejaVuSans-52" d="M1100.756,807.723c1.188-0.399,2.348-1.262,3.475-2.58c1.127-1.318,2.254-3.129,3.394-5.44
							l5.631-11.202h-5.973l-5.229,10.519c-1.359,2.747-2.681,4.569-3.947,5.464c-1.27,0.896-3.007,1.347-5.204,1.347h-6.042v-17.33
							h-5.546v41h12.524c4.683,0,8.183-0.985,10.486-2.946c2.311-1.957,3.459-4.907,3.459-8.866c0-2.584-0.594-4.724-1.794-6.429
							C1104.784,809.562,1103.047,808.382,1100.756,807.723z M1086.86,824.939v-14.551h6.978c2.665,0,4.683,0.619,6.047,1.855
							c1.371,1.233,2.055,3.048,2.055,5.444s-0.684,4.208-2.055,5.424c-1.363,1.217-3.381,1.827-6.047,1.827H1086.86z"/>
					</g>
					<g>
						<path id="DejaVuSans-20_2_" d="M1114.867,788.501"/>
					</g>
					<g>
						<path id="DejaVuSans-35_2_" d="M1138.813,829.5h21.773v-4.675h-16.695v-10.042c0.806,0.272,1.607,0.48,2.413,0.61
							c0.81,0.138,1.615,0.208,2.421,0.208c4.578,0,8.203-1.257,10.868-3.764c2.677-2.502,4.02-5.9,4.02-10.181
							c0-4.415-1.375-7.841-4.126-10.291c-2.747-2.441-6.612-3.667-11.613-3.667c-1.721,0-3.479,0.151-5.261,0.444
							s-3.625,0.732-5.53,1.318v5.574c1.648-0.891,3.349-1.562,5.107-1.998c1.754-0.439,3.613-0.664,5.571-0.664
							c3.174,0,5.672,0.834,7.523,2.499c1.847,1.66,2.775,3.922,2.775,6.783c0,2.852-0.928,5.106-2.775,6.771
							c-1.851,1.672-4.35,2.507-7.523,2.507c-1.481,0-2.966-0.163-4.439-0.493c-1.473-0.33-2.97-0.842-4.508-1.538V829.5z"/>
					</g>
					<g>
						<path id="DejaVuSans-30_13_" d="M1186.396,825.846c-2.856,0-5.005-1.408-6.445-4.219c-1.432-2.808-2.148-7.031-2.148-12.671
							c0-5.62,0.716-9.831,2.148-12.643c1.44-2.812,3.589-4.215,6.445-4.215c2.881,0,5.029,1.404,6.461,4.215
							c1.44,2.812,2.165,7.023,2.165,12.643c0,5.64-0.724,9.863-2.165,12.671C1191.426,824.438,1189.277,825.846,1186.396,825.846z
							 M1186.396,830.237c4.598,0,8.105-1.819,10.531-5.457c2.425-3.634,3.638-8.907,3.638-15.824c0-6.901-1.213-12.17-3.638-15.804
							s-5.933-5.453-10.531-5.453c-4.59,0-8.105,1.819-10.531,5.453c-2.425,3.634-3.629,8.903-3.629,15.804
							c0,6.917,1.204,12.19,3.629,15.824C1178.291,828.418,1181.806,830.237,1186.396,830.237z"/>
					</g>
					<g>
						<path id="DejaVuSans-30_14_" d="M1222.171,825.846c-2.856,0-4.997-1.408-6.437-4.219c-1.44-2.808-2.156-7.031-2.156-12.671
							c0-5.62,0.716-9.831,2.156-12.643s3.581-4.215,6.437-4.215c2.881,0,5.029,1.404,6.462,4.215
							c1.448,2.812,2.165,7.023,2.165,12.643c0,5.64-0.716,9.863-2.165,12.671C1227.2,824.438,1225.052,825.846,1222.171,825.846z
							 M1222.171,830.237c4.598,0,8.105-1.819,10.531-5.457c2.425-3.634,3.638-8.907,3.638-15.824c0-6.901-1.212-12.17-3.638-15.804
							c-2.425-3.634-5.933-5.453-10.531-5.453c-4.59,0-8.105,1.819-10.531,5.453c-2.425,3.634-3.63,8.903-3.63,15.804
							c0,6.917,1.204,12.19,3.63,15.824C1214.065,828.418,1217.581,830.237,1222.171,830.237z"/>
					</g>
					<g>
						<path id="DejaVuSans-30_15_" d="M1257.946,825.846c-2.848,0-4.997-1.408-6.445-4.219c-1.432-2.808-2.148-7.031-2.148-12.671
							c0-5.62,0.716-9.831,2.148-12.643c1.449-2.812,3.597-4.215,6.445-4.215c2.881,0,5.038,1.404,6.462,4.215
							c1.448,2.812,2.165,7.023,2.165,12.643c0,5.64-0.716,9.863-2.165,12.671C1262.983,824.438,1260.826,825.846,1257.946,825.846z
							 M1257.946,830.237c4.606,0,8.105-1.819,10.539-5.457c2.417-3.634,3.638-8.907,3.638-15.824c0-6.901-1.221-12.17-3.638-15.804
							c-2.433-3.634-5.933-5.453-10.539-5.453c-4.59,0-8.105,1.819-10.522,5.453c-2.433,3.634-3.638,8.903-3.638,15.804
							c0,6.917,1.205,12.19,3.638,15.824C1249.84,828.418,1253.356,830.237,1257.946,830.237z"/>
					</g>
					<g>
						<path id="DejaVuSans-2d_1_" d="M1278.6,806.152h14.803v-4.496H1278.6V806.152z"/>
					</g>
					<g>
						<path id="DejaVuSans-62" d="M1323.522,803.854c0,3.711-0.765,6.624-2.295,8.74c-1.53,2.116-3.629,3.174-6.299,3.174
							c-2.677,0-4.777-1.058-6.307-3.174c-1.53-2.116-2.295-5.029-2.295-8.74c0-3.715,0.765-6.633,2.295-8.745
							s3.63-3.174,6.307-3.174c2.669,0,4.769,1.062,6.299,3.174C1322.757,797.221,1323.522,800.138,1323.522,803.854z
							 M1306.326,814.587c1.066,1.827,2.409,3.186,4.028,4.069c1.619,0.891,3.556,1.339,5.811,1.339
							c3.727,0,6.763-1.485,9.098-4.447c2.335-2.966,3.507-6.865,3.507-11.694c0-4.834-1.172-8.736-3.507-11.707
							c-2.336-2.962-5.371-4.448-9.098-4.448c-2.254,0-4.191,0.448-5.811,1.339s-2.962,2.25-4.028,4.077v-4.614h-5.078v42.729h5.078
							V814.587z"/>
					</g>
					<g>
						<path id="DejaVuSans-79" d="M1349.93,785.645c-1.424-3.662-2.816-6.046-4.175-7.157c-1.359-1.119-3.166-1.681-5.436-1.681
							h-4.036v4.224h2.97c1.392,0,2.466,0.333,3.239,0.997c0.773,0.655,1.62,2.213,2.555,4.667l0.903,2.299l-12.435,30.257h5.355
							l9.603-24.048l9.619,24.048h5.347L1349.93,785.645z"/>
					</g>
					<g>
						<path id="DejaVuSans-2d_2_" d="M1367.858,806.152h14.795v-4.496h-14.795V806.152z"/>
					</g>
					<g>
						<path id="DejaVuSans-31_14_" d="M1392.378,793.164h9.058v31.283l-9.855-1.978v5.054l9.806,1.978h5.534v-36.336h9.066v-4.663
							h-23.608V793.164z"/>
					</g>
					<g>
						<path id="DejaVuSans-39_1_" d="M1427.355,789.352v5.054c1.392-0.659,2.8-1.164,4.224-1.51
							c1.432-0.346,2.832-0.521,4.208-0.521c3.662,0,6.453,1.233,8.382,3.691c1.937,2.461,3.035,6.201,3.312,11.222
							c-1.058-1.575-2.409-2.787-4.037-3.629c-1.636-0.842-3.426-1.266-5.404-1.266c-4.102,0-7.349,1.241-9.741,3.715
							c-2.385,2.486-3.581,5.884-3.581,10.185c0,4.207,1.245,7.581,3.735,10.124c2.49,2.547,5.794,3.821,9.937,3.821
							c4.745,0,8.366-1.819,10.856-5.457c2.507-3.634,3.76-8.907,3.76-15.824c0-6.462-1.538-11.617-4.614-15.471
							c-3.06-3.857-7.178-5.786-12.354-5.786c-1.4,0-2.808,0.143-4.24,0.415C1430.374,788.391,1428.893,788.802,1427.355,789.352z
							 M1438.39,806.734c2.49,0,4.46,0.85,5.908,2.547c1.457,1.705,2.189,4.041,2.189,7.011c0,2.946-0.732,5.273-2.189,6.986
							c-1.448,1.709-3.418,2.567-5.908,2.567s-4.468-0.858-5.908-2.567c-1.457-1.713-2.181-4.041-2.181-6.986
							c0-2.971,0.724-5.306,2.181-7.011C1433.922,807.584,1435.9,806.734,1438.39,806.734z"/>
					</g>
					<g>
						<path id="DejaVuSans-20_3_" d="M1456.953,788.501"/>
					</g>
					<g>
						<path id="DejaVuSans-51_1_" d="M1496.984,825.736c-4.028,0-7.227-1.501-9.603-4.504c-2.368-2.999-3.548-7.092-3.548-12.276
							c0-5.164,1.18-9.241,3.548-12.248c2.376-2.999,5.574-4.496,9.603-4.496s7.219,1.498,9.57,4.496
							c2.36,3.007,3.532,7.084,3.532,12.248c0,5.184-1.172,9.277-3.532,12.276C1504.202,824.235,1501.012,825.736,1496.984,825.736z
							 M1504.756,789.242l7.316-7.992h-6.714l-6.071,6.567c-0.602-0.037-1.066-0.061-1.384-0.082
							c-0.317-0.024-0.618-0.037-0.92-0.037c-5.762,0-10.368,1.929-13.826,5.786c-3.45,3.854-5.176,9.009-5.176,15.471
							c0,6.478,1.725,11.646,5.176,15.503c3.459,3.849,8.065,5.778,13.826,5.778c5.754,0,10.344-1.929,13.778-5.778
							c3.442-3.857,5.167-9.025,5.167-15.503c0-4.757-0.952-8.83-2.873-12.224C1511.144,793.351,1508.385,790.849,1504.756,789.242z
							"/>
					</g>
					<g>
						<path id="DejaVuSans-20_4_" d="M1519.095,788.501"/>
					</g>
					<g>
						<path id="DejaVuSans-6f_5_" d="M1554.178,815.714c-2.702,0-4.85-1.058-6.421-3.174c-1.579-2.116-2.368-5.013-2.368-8.687
							c0-3.683,0.781-6.58,2.344-8.691c1.571-2.116,3.719-3.174,6.445-3.174c2.694,0,4.826,1.062,6.396,3.182
							c1.571,2.128,2.36,5.021,2.36,8.684c0,3.642-0.79,6.531-2.36,8.659C1559.004,814.648,1556.871,815.714,1554.178,815.714z
							 M1554.178,819.995c4.395,0,7.845-1.432,10.352-4.289s3.768-6.808,3.768-11.853c0-5.034-1.261-8.984-3.768-11.853
							c-2.507-2.865-5.957-4.301-10.352-4.301c-4.411,0-7.861,1.437-10.368,4.301c-2.498,2.869-3.743,6.819-3.743,11.853
							c0,5.045,1.245,8.997,3.743,11.853C1546.316,818.563,1549.767,819.995,1554.178,819.995z"/>
					</g>
					<g>
						<path id="DejaVuSans-72_6_" d="M1594.485,814.535c-0.57,0.33-1.188,0.569-1.855,0.72c-0.667,0.159-1.4,0.24-2.205,0.24
							c-2.856,0-5.054-0.932-6.584-2.783c-1.53-1.863-2.287-4.529-2.287-8.008v-16.203h-5.078v30.75h5.078v-4.777
							c1.066,1.868,2.441,3.255,4.142,4.154c1.709,0.912,3.776,1.367,6.218,1.367c0.342,0,0.724-0.024,1.147-0.073
							c0.415-0.041,0.887-0.106,1.4-0.204L1594.485,814.535z"/>
					</g>
					<g>
						<path id="DejaVuSans-74_2_" d="M1604.78,827.987v-8.736h10.408v-3.922h-10.408v-16.695c0-2.511,0.35-4.118,1.033-4.834
							c0.684-0.712,2.083-1.07,4.199-1.07h5.176v-4.228h-5.176c-3.906,0-6.6,0.729-8.081,2.181
							c-1.489,1.457-2.222,4.105-2.222,7.951v16.695h-3.711v3.922h3.711v8.736H1604.78z"/>
					</g>
					<g>
						<path id="DejaVuSans-68_1_" d="M1647.399,807.068v-18.567h-5.045v18.4c0,2.91-0.57,5.09-1.709,6.527
							c-1.131,1.449-2.84,2.173-5.103,2.173c-2.734,0-4.883-0.871-6.454-2.612c-1.587-1.729-2.368-4.102-2.368-7.104v-17.383h-5.078
							v42.729h5.078v-16.756c1.213,1.851,2.637,3.235,4.264,4.146c1.644,0.916,3.54,1.375,5.688,1.375
							c3.524,0,6.193-1.099,8.008-3.28C1646.495,814.53,1647.399,811.316,1647.399,807.068z"/>
					</g>
					<g>
						<path id="DejaVuSans-6f_6_" d="M1669.388,815.714c-2.702,0-4.85-1.058-6.421-3.174c-1.579-2.116-2.368-5.013-2.368-8.687
							c0-3.683,0.789-6.58,2.352-8.691c1.562-2.116,3.711-3.174,6.437-3.174c2.694,0,4.834,1.062,6.396,3.182
							c1.579,2.128,2.36,5.021,2.36,8.684c0,3.642-0.781,6.531-2.36,8.659C1674.222,814.648,1672.081,815.714,1669.388,815.714z
							 M1669.388,819.995c4.395,0,7.845-1.432,10.352-4.289c2.515-2.856,3.768-6.808,3.768-11.853c0-5.034-1.253-8.984-3.768-11.853
							c-2.507-2.865-5.957-4.301-10.352-4.301c-4.411,0-7.869,1.437-10.368,4.301c-2.498,2.869-3.743,6.819-3.743,11.853
							c0,5.045,1.245,8.997,3.743,11.853C1661.518,818.563,1664.977,819.995,1669.388,819.995z"/>
					</g>
					<g>
						<path id="DejaVuSans-67" d="M1712.112,804.24c0,3.662-0.757,6.494-2.271,8.504c-1.497,2.014-3.613,3.023-6.348,3.023
							c-2.71,0-4.81-1.009-6.331-3.023c-1.506-2.01-2.262-4.842-2.262-8.504c0-3.646,0.757-6.474,2.262-8.492
							c1.522-2.01,3.621-3.02,6.331-3.02c2.734,0,4.85,1.009,6.348,3.02C1711.355,797.766,1712.112,800.594,1712.112,804.24z
							 M1717.166,792.313c0-5.229-1.164-9.123-3.491-11.674c-2.319-2.56-5.876-3.833-10.677-3.833c-1.774,0-3.442,0.13-5.021,0.395
							c-1.571,0.265-3.101,0.671-4.582,1.225v4.907c1.481-0.798,2.946-1.392,4.386-1.774c1.448-0.386,2.922-0.578,4.427-0.578
							c3.312,0,5.794,0.863,7.438,2.592c1.644,1.726,2.466,4.338,2.466,7.837v2.507c-1.042-1.819-2.376-3.174-4.004-4.069
							c-1.628-0.899-3.581-1.347-5.851-1.347c-3.768,0-6.803,1.44-9.115,4.305c-2.303,2.876-3.459,6.685-3.459,11.434
							c0,4.753,1.156,8.569,3.459,11.438c2.311,2.877,5.347,4.317,9.115,4.317c2.271,0,4.224-0.452,5.851-1.347
							c1.628-0.896,2.962-2.25,4.004-4.061v4.663h5.054V792.313z"/>
					</g>
					<g>
						<path id="DejaVuSans-6f_7_" d="M1739.489,815.714c-2.702,0-4.85-1.058-6.421-3.174c-1.579-2.116-2.368-5.013-2.368-8.687
							c0-3.683,0.781-6.58,2.344-8.691c1.579-2.116,3.727-3.174,6.445-3.174c2.694,0,4.826,1.062,6.396,3.182
							c1.571,2.128,2.36,5.021,2.36,8.684c0,3.642-0.789,6.531-2.36,8.659C1744.314,814.648,1742.182,815.714,1739.489,815.714z
							 M1739.489,819.995c4.395,0,7.845-1.432,10.352-4.289c2.507-2.856,3.768-6.808,3.768-11.853c0-5.034-1.261-8.984-3.768-11.853
							c-2.506-2.865-5.957-4.301-10.352-4.301c-4.411,0-7.869,1.437-10.368,4.301c-2.499,2.869-3.744,6.819-3.744,11.853
							c0,5.045,1.245,8.997,3.744,11.853C1731.619,818.563,1735.078,819.995,1739.489,819.995z"/>
					</g>
					<g>
						<path id="DejaVuSans-6e_2_" d="M1787.544,807.068v-18.567h-5.054v18.4c0,2.91-0.562,5.09-1.701,6.527
							c-1.131,1.449-2.84,2.173-5.103,2.173c-2.734,0-4.883-0.871-6.462-2.612c-1.579-1.729-2.36-4.102-2.36-7.104v-17.383h-5.078
							v30.75h5.078v-4.777c1.212,1.851,2.637,3.235,4.264,4.146c1.644,0.916,3.54,1.375,5.68,1.375c3.532,0,6.201-1.099,8.016-3.28
							C1786.64,814.53,1787.544,811.316,1787.544,807.068z"/>
					</g>
					<g>
						<path id="DejaVuSans-61_1_" d="M1811.592,803.955c-4.077,0-6.909-0.464-8.48-1.396c-1.579-0.932-2.368-2.527-2.368-4.781
							c0-1.791,0.586-3.214,1.774-4.269c1.188-1.045,2.791-1.575,4.818-1.575c2.808,0,5.054,0.993,6.747,2.983
							c1.701,1.981,2.539,4.622,2.539,7.914v1.123H1811.592z M1821.683,806.051v-17.55h-5.062v4.663
							c-1.156-1.859-2.588-3.235-4.313-4.126c-1.717-0.891-3.833-1.339-6.323-1.339c-3.141,0-5.64,0.887-7.503,2.653
							c-1.864,1.774-2.792,4.138-2.792,7.1c0,3.459,1.164,6.063,3.475,7.821c2.319,1.758,5.778,2.641,10.368,2.641h7.088v0.5
							c0,2.324-0.757,4.118-2.295,5.396c-1.53,1.266-3.67,1.904-6.437,1.904c-1.758,0-3.467-0.211-5.135-0.635
							c-1.668-0.419-3.263-1.054-4.802-1.896v4.675c1.847,0.712,3.638,1.245,5.379,1.599c1.742,0.358,3.426,0.537,5.07,0.537
							c4.46,0,7.78-1.16,9.977-3.463C1820.576,814.229,1821.683,810.734,1821.683,806.051z"/>
					</g>
					<g>
						<path id="DejaVuSans-6c_1_" d="M1832.075,831.229h5.054v-42.729h-5.054V831.229z"/>
					</g>
					<g>
						<path id="DejaVuSans-69_1_" d="M1847.7,819.25h5.054v-30.75h-5.054V819.25z M1847.7,831.229h5.054v-6.404h-5.054V831.229z"/>
					</g>
					<g>
						<path id="DejaVuSans-74_3_" d="M1868.322,827.987v-8.736h10.408v-3.922h-10.408v-16.695c0-2.511,0.342-4.118,1.033-4.834
							c0.684-0.712,2.083-1.07,4.183-1.07h5.192v-4.228h-5.192c-3.898,0-6.592,0.729-8.073,2.181
							c-1.481,1.457-2.222,4.105-2.222,7.951v16.695h-3.711v3.922h3.711v8.736H1868.322z"/>
					</g>
					<g>
						<path id="DejaVuSans-79_1_" d="M1898.164,785.645c-1.424-3.662-2.816-6.046-4.175-7.157c-1.351-1.119-3.157-1.681-5.428-1.681
							h-4.045v4.224h2.97c1.392,0,2.466,0.333,3.231,0.997c0.773,0.655,1.628,2.213,2.563,4.667l0.903,2.299l-12.427,30.257h5.347
							l9.611-24.048l9.611,24.048h5.355L1898.164,785.645z"/>
					</g>
					<g>
						<path id="DejaVuSans-20_5_" d="M1913.349,788.501"/>
					</g>
					<g>
						<path id="DejaVuSans-65_4_" d="M1962.828,805.143v-2.47h-23.226c0.22-3.479,1.27-6.132,3.141-7.951
							c1.88-1.823,4.492-2.734,7.837-2.734c1.937,0,3.817,0.236,5.64,0.712c1.823,0.472,3.638,1.192,5.436,2.148v-4.781
							c-1.815-0.769-3.678-1.359-5.574-1.758c-1.904-0.407-3.841-0.61-5.802-0.61c-4.907,0-8.789,1.428-11.662,4.281
							c-2.856,2.856-4.289,6.726-4.289,11.601c0,5.029,1.359,9.021,4.077,11.975c2.71,2.954,6.388,4.439,11.002,4.439
							c4.134,0,7.406-1.339,9.814-4C1961.624,813.334,1962.828,809.721,1962.828,805.143z M1957.783,806.628
							c-0.041,2.759-0.814,4.96-2.327,6.604c-1.506,1.656-3.508,2.482-5.998,2.482c-2.816,0-5.078-0.797-6.763-2.393
							c-1.693-1.591-2.669-3.833-2.93-6.726L1957.783,806.628z"/>
					</g>
					<g>
						<path id="DejaVuSans-72_7_" d="M1988.935,814.535c-0.562,0.33-1.18,0.569-1.847,0.72c-0.667,0.159-1.4,0.24-2.206,0.24
							c-2.856,0-5.054-0.932-6.583-2.783c-1.53-1.863-2.295-4.529-2.295-8.008v-16.203h-5.078v30.75h5.078v-4.777
							c1.066,1.868,2.449,3.255,4.142,4.154c1.709,0.912,3.784,1.367,6.218,1.367c0.35,0,0.732-0.024,1.147-0.073
							c0.423-0.041,0.887-0.106,1.408-0.204L1988.935,814.535z"/>
					</g>
					<g>
						<path id="DejaVuSans-72_8_" d="M2012.047,814.535c-0.562,0.33-1.18,0.569-1.855,0.72c-0.667,0.159-1.4,0.24-2.205,0.24
							c-2.856,0-5.054-0.932-6.584-2.783c-1.522-1.863-2.287-4.529-2.287-8.008v-16.203h-5.078v30.75h5.078v-4.777
							c1.066,1.868,2.45,3.255,4.15,4.154c1.709,0.912,3.768,1.367,6.209,1.367c0.342,0,0.732-0.024,1.147-0.073
							c0.423-0.041,0.887-0.106,1.4-0.204L2012.047,814.535z"/>
					</g>
					<g>
						<path id="DejaVuSans-6f_8_" d="M2029.243,815.714c-2.702,0-4.842-1.058-6.421-3.174c-1.571-2.116-2.36-5.013-2.36-8.687
							c0-3.683,0.781-6.58,2.344-8.691c1.571-2.116,3.719-3.174,6.437-3.174c2.702,0,4.834,1.062,6.405,3.182
							c1.571,2.128,2.36,5.021,2.36,8.684c0,3.642-0.789,6.531-2.36,8.659C2034.077,814.648,2031.945,815.714,2029.243,815.714z
							 M2029.243,819.995c4.395,0,7.845-1.432,10.352-4.289c2.515-2.856,3.776-6.808,3.776-11.853c0-5.034-1.261-8.984-3.776-11.853
							c-2.506-2.865-5.957-4.301-10.352-4.301c-4.403,0-7.869,1.437-10.36,4.301c-2.498,2.869-3.743,6.819-3.743,11.853
							c0,5.045,1.245,8.997,3.743,11.853C2021.373,818.563,2024.84,819.995,2029.243,819.995z"/>
					</g>
					<g>
						<path id="DejaVuSans-72_9_" d="M2069.559,814.535c-0.578,0.33-1.188,0.569-1.864,0.72c-0.659,0.159-1.392,0.24-2.197,0.24
							c-2.856,0-5.045-0.932-6.583-2.783c-1.53-1.863-2.295-4.529-2.295-8.008v-16.203h-5.078v30.75h5.078v-4.777
							c1.066,1.868,2.449,3.255,4.15,4.154c1.701,0.912,3.784,1.367,6.217,1.367c0.342,0,0.724-0.024,1.147-0.073
							c0.423-0.041,0.887-0.106,1.4-0.204L2069.559,814.535z"/>
					</g>
				</g>
			</g>
		</g>
	</g>
</g>
<g id="text">
	<text transform="matrix(1 0 0 1 354.0001 12.4998)" font-family="'TimesNewRomanPSMT'" font-size="12">Subspace Iteration Eigenspace Error</text>
	<text transform="matrix(1.192488e-08 -1 1 1.192488e-08 229.0026 173.2947)" font-family="'TimesNewRomanPSMT'" font-size="11">2-norm error</text>
	<text transform="matrix(1 0 0 1 421.0734 285.3934)" font-family="'TimesNewRomanPSMT'" font-size="11">Iterations</text>
</g>
</svg>
